SplineFontDB: 3.0
FontName: MJ_Mat-BoldItalic
FullName: MJ_Mat Bold Italic
FamilyName: MJ_Mat
Weight: Bold
Copyright: Copyright (c) 2009-2010 Design Science, Inc.
Version: 3.0
ItalicAngle: 0
UnderlinePosition: -100
UnderlineWidth: 50
Ascent: 800
Descent: 200
InvalidEm: 0
sfntRevision: 0x00030000
LayerCount: 2
Layer: 0 0 "Back" 1
Layer: 1 0 "Fore" 0
XUID: [1021 555 1361428464 30575]
StyleMap: 0x0021
FSType: 0
OS2Version: 3
OS2_WeightWidthSlopeOnly: 0
OS2_UseTypoMetrics: 0
CreationTime: 1255375311
ModificationTime: 1520427193
PfmFamily: 81
TTFWeight: 700
TTFWidth: 5
LineGap: 0
VLineGap: 0
Panose: 0 0 0 0 0 0 0 0 0 0
OS2TypoAscent: 725
OS2TypoAOffset: 0
OS2TypoDescent: -216
OS2TypoDOffset: 0
OS2TypoLinegap: 0
OS2WinAscent: 725
OS2WinAOffset: 0
OS2WinDescent: 216
OS2WinDOffset: 0
HheadAscent: 725
HheadAOffset: 0
HheadDescent: -216
HheadDOffset: 0
OS2SubXSize: 650
OS2SubYSize: 700
OS2SubXOff: 0
OS2SubYOff: 140
OS2SupXSize: 650
OS2SupYSize: 700
OS2SupXOff: 0
OS2SupYOff: 480
OS2StrikeYSize: 49
OS2StrikeYPos: 258
OS2CapHeight: 686
OS2XHeight: 451
OS2Vendor: 'PfEd'
OS2CodePages: 2000008f.5e030000
OS2UnicodeRanges: 800000ef.1000eced.00000000.00000000
MarkAttachClasses: 1
DEI: 91125
LangName: 1033 "" "" "Bold Italic" "FontForge 2.0 : MJ_Mat-BoldItalic" "" "Version 1.1" "" "" "" "" "" "" "" "Copyright (c) 2009-2010, Design Science, Inc. (<www.mathjax.org>),+AAoA-with Reserved Font Name MathJax_Math.+AAoACgAA-This Font Software is licensed under the SIL Open Font License, Version 1.1.+AAoA-This license available with a FAQ at:+AAoA-http://scripts.sil.org/OFL" "http://scripts.sil.org/OFL" "" "MJ_Mat"
Encoding: UnicodeBmp
UnicodeInterp: none
NameList: AGL For New Fonts
DisplaySize: -48
AntiAlias: 1
FitToEm: 0
WinInfo: 38 38 12
BeginPrivate: 6
BlueValues 23 [-17 0 451 453 686 703]
OtherBlues 11 [-202 -202]
BlueScale 7 0.03963
BlueShift 1 0
StdHW 4 [50]
StdVW 4 [50]
EndPrivate
BeginChars: 65537 100

StartChar: .notdef
Encoding: 65536 -1 0
Width: 250
Flags: MW
HStem: 0 50<100 150 100 200> 483 50<100 150 100 100>
VStem: 50 50<50 50 50 483> 150 50<50 483 483 483>
LayerCount: 2
Fore
SplineSet
50 0 m 1
 50 533 l 1
 200 533 l 1
 200 0 l 1
 50 0 l 1
100 50 m 1
 150 50 l 1
 150 483 l 1
 100 483 l 1
 100 50 l 1
EndSplineSet
EndChar

StartChar: slash
Encoding: 47 47 2
Width: 894
GlyphClass: 2
Flags: MW
HStem: 691 20G<698.5 712>
LayerCount: 2
Fore
SplineSet
189 -210 m 0
 172 -210 160 -195 160 -179 c 0
 160 -173 160 -171 162 -166 c 0
 166 -160 675 692 679 698 c 0
 683 705 693 711 704 711 c 0
 720 711 733 699 733 681 c 0
 733 673 733 672 730 667 c 0
 721 649 215 -197 211 -201 c 0
 205 -207 197 -210 189 -210 c 0
EndSplineSet
EndChar

StartChar: A
Encoding: 65 65 3
Width: 869
GlyphClass: 2
Flags: MW
HStem: 0 62<71.5 79 784.5 818> 181 63<348 348 308 348> 691 20G<611 620 620 628>
LayerCount: 2
Fore
SplineSet
65 0 m 0
 52 0 45 7 45 18 c 0
 45 23 52 49 54 53 c 0
 60 62 62 62 81 62 c 0
 102 62 125 64 142 66 c 0
 158 68 161 69 165 74 c 0
 168 75 561 691 569 699 c 0
 579 711 586 711 611 711 c 2
 620 711 l 2
 636 711 641 710 649 700 c 0
 650 698 665 593 695 380 c 2
 741 63 l 1
 784 62 l 1
 827 62 l 1
 831 58 839 52 839 45 c 0
 839 44 837 37 835 29 c 0
 830 5 830 0 806 0 c 0
 763 0 725 2 657 2 c 0
 590 2 548 0 504 0 c 0
 489 0 481 6 481 17 c 0
 481 24 488 50 490 54 c 0
 497 61 497 63 506 63 c 0
 512 63 522 62 541 62 c 2
 569 62 l 2
 576 62 580 62 580 63 c 0
 580 70 566 172 564 179 c 2
 564 181 l 1
 308 181 l 1
 271 124 l 2
 252 94 236 68 236 67 c 0
 236 65 265 63 283 62 c 0
 300 62 303 61 307 60 c 0
 311 58 316 51 316 46 c 0
 316 39 309 12 307 8 c 0
 303 4 300 2 295 0 c 2
 262 1 l 2
 242 2 204 2 168 2 c 0
 120 2 93 0 65 0 c 0
537 372 m 2
 527 443 518 502 518 504 c 2
 518 505 l 2
 516 505 506 488 433 375 c 2
 348 244 l 1
 451 243 l 2
 508 243 555 243 555 244 c 2
 537 372 l 2
EndSplineSet
EndChar

StartChar: B
Encoding: 66 66 4
Width: 866
GlyphClass: 2
Flags: MW
HStem: 0 62<113 162 113 288 58 162> 331 51<435.5 470 435.5 479> 624 62<447 447 447 449 338.5 545>
VStem: 703 150<541.5 571.5>
LayerCount: 2
Fore
SplineSet
162 62 m 1
 165 76 302 620 302 623 c 0
 302 624 287 624 258 624 c 0
 215 624 214 624 209 626 c 0
 204 628 201 633 199 639 c 0
 199 641 200 647 203 659 c 0
 208 678 209 681 216 684 c 0
 220 686 228 686 449 686 c 0
 702 685 686 686 720 679 c 0
 793 665 853 629 853 547 c 0
 853 525 848 501 838 481 c 0
 809 425 750 383 670 363 c 0
 662 362 655 360 654 360 c 2
 653 360 l 2
 653 359 804 343 804 224 c 0
 804 201 799 177 787 152 c 0
 745 64 653 9 533 1 c 0
 524 0 431 0 288 0 c 2
 58 0 l 2
 50 3 46 6 43 15 c 0
 43 17 44 23 47 35 c 0
 52 54 53 57 60 60 c 0
 64 62 68 62 113 62 c 2
 162 62 l 1
703 550 m 0
 703 593 679 613 643 623 c 1
 545 624 l 1
 447 624 l 1
 417 504 l 2
 400 438 386 384 386 383 c 0
 386 382 401 382 470 382 c 0
 550 383 554 383 565 385 c 0
 625 396 669 434 692 491 c 0
 698 509 703 533 703 550 c 0
651 240 m 0
 651 289 630 316 592 329 c 0
 586 330 578 330 479 331 c 2
 373 331 l 1
 340 198 l 2
 322 125 307 65 306 64 c 0
 306 62 310 62 406 62 c 2
 507 63 l 1
 519 65 l 1
 589 82 635 134 648 209 c 0
 650 220 651 230 651 240 c 0
EndSplineSet
EndChar

StartChar: C
Encoding: 67 67 5
Width: 817
GlyphClass: 2
Flags: MW
HStem: -17 63<313.5 429> 640 62<525 545 545 554.5 525 584>
VStem: 55 155<196 286.5>
LayerCount: 2
Fore
SplineSet
833 703 m 0
 845 703 855 700 855 690 c 0
 855 685 791 430 789 426 c 0
 785 419 784 419 756 419 c 0
 729 420 728 420 725 427 c 0
 723 431 723 432 724 440 c 0
 725 449 726 461 726 472 c 0
 726 532 707 572 678 604 c 0
 659 622 636 633 609 639 c 0
 600 640 594 640 574 640 c 0
 475 640 388 606 329 545 c 0
 299 515 279 483 260 437 c 0
 237 385 216 299 211 244 c 0
 210 237 210 228 210 219 c 0
 210 173 217 142 237 117 c 0
 245 105 261 90 273 83 c 0
 310 58 359 46 420 46 c 2
 429 46 l 2
 462 46 485 51 516 64 c 0
 588 93 657 158 678 234 c 0
 685 254 684 254 712 254 c 0
 731 254 733 254 736 252 c 0
 740 250 743 245 743 240 c 0
 743 239 742 233 740 227 c 0
 709 119 606 28 477 -5 c 0
 444 -14 418 -17 380 -17 c 0
 247 -17 140 30 90 115 c 0
 66 154 55 204 55 256 c 0
 55 317 71 376 99 434 c 0
 172 584 321 690 525 702 c 1
 545 702 l 2
 564 702 589 702 596 701 c 0
 650 692 700 671 731 634 c 1
 777 668 l 2
 802 686 823 701 825 702 c 0
 827 703 829 703 833 703 c 0
EndSplineSet
EndChar

StartChar: D
Encoding: 68 68 6
Width: 938
GlyphClass: 2
Flags: MW
HStem: 0 62<113 162 113 279 58 162> 624 62<236.5 505.5 452 452 452 505.5 333 532>
VStem: 768 146<428.5 523>
LayerCount: 2
Fore
SplineSet
162 62 m 1
 165 76 302 620 302 623 c 0
 302 624 287 624 258 624 c 0
 215 624 214 624 209 626 c 0
 204 628 201 633 199 639 c 0
 199 641 200 647 203 659 c 0
 208 678 209 681 216 684 c 0
 220 686 229 686 437 686 c 0
 574 686 659 686 668 685 c 0
 807 674 896 606 913 475 c 0
 914 466 914 449 914 434 c 0
 914 423 914 413 913 406 c 0
 891 192 742 40 548 7 c 0
 506 0 524 1 279 0 c 2
 58 0 l 2
 50 3 46 6 43 15 c 0
 43 17 44 23 47 35 c 0
 52 54 53 57 60 60 c 0
 64 62 68 62 113 62 c 2
 162 62 l 1
768 475 m 0
 768 571 709 609 624 622 c 0
 614 623 600 623 532 624 c 2
 452 624 l 1
 382 344 l 2
 343 190 311 64 311 63 c 0
 311 62 333 62 363 62 c 0
 411 62 476 63 487 64 c 0
 539 71 580 86 616 109 c 0
 632 120 641 128 656 142 c 0
 690 178 714 223 733 294 c 0
 740 317 754 375 758 395 c 0
 764 426 768 452 768 475 c 0
EndSplineSet
EndChar

StartChar: E
Encoding: 69 69 7
Width: 810
GlyphClass: 2
Flags: MW
HStem: 0 62<113 162 355.5 426.5 58 162> 322 62<421.5 423 382 435> 618 62<236.5 278 456 456 456 545>
VStem: 499 58 562 64 723 68 741 58 744 81
LayerCount: 2
Fore
SplineSet
163 66 m 2xfc
 163 67 300 615 301 616 c 0
 301 618 299 618 257 618 c 0
 216 618 212 618 209 620 c 0
 202 623 198 629 198 636 c 0
 198 642 205 669 208 673 c 0
 211 676 215 678 219 680 c 2
 811 680 l 2
 817 678 825 673 825 664 c 0xf9
 825 662 803 441 799 433 c 0
 794 425 791 424 771 424 c 0
 751 424 747 425 743 432 c 0
 739 438 739 440 741 459 c 0xfa
 743 476 744 491 744 505 c 0xf9
 744 581 717 606 646 616 c 0
 636 617 616 617 545 618 c 2
 456 618 l 1
 452 603 398 388 398 385 c 0
 398 384 408 384 435 384 c 0
 476 385 488 386 503 392 c 0
 533 404 549 427 562 478 c 0
 567 499 570 501 595 501 c 0
 618 501 621 500 626 486 c 0
 626 482 561 218 557 213 c 0
 553 206 549 205 530 205 c 0
 508 205 499 207 499 221 c 0
 499 225 500 231 502 238 c 0
 506 256 508 270 508 281 c 0
 508 301 501 312 484 317 c 0
 472 321 464 321 423 322 c 2
 382 322 l 1
 317 64 l 2
 317 62 321 62 390 62 c 0
 463 62 486 63 509 66 c 0
 565 72 607 91 640 124 c 0
 670 154 692 191 723 262 c 0
 735 285 728 289 760 289 c 0
 779 289 783 288 788 281 c 0
 789 279 791 277 791 274 c 0
 791 258 678 8 678 8 c 2
 676 4 672 2 667 0 c 2
 58 0 l 2
 50 3 46 6 43 15 c 0
 43 17 44 23 47 35 c 0
 52 54 53 57 60 60 c 0
 64 62 68 62 113 62 c 2
 162 62 l 1
 163 66 l 2xfc
EndSplineSet
EndChar

StartChar: F
Encoding: 70 70 8
Width: 689
GlyphClass: 2
Flags: MW
HStem: 0 62<57.5 162> 309 62<379 429> 618 62<236.5 278 456 456 456 538>
VStem: 163 155<65 66.5> 492 57 552 64 725 58 727 82
CounterMasks: 1 e0
LayerCount: 2
Fore
SplineSet
163 66 m 2xfd
 163 67 300 615 301 616 c 0
 301 618 299 618 257 618 c 0
 216 618 212 618 209 620 c 0
 202 623 198 629 198 636 c 0
 198 642 205 669 208 673 c 0
 211 676 215 678 219 680 c 2
 795 680 l 2
 801 678 809 673 809 664 c 0xfd
 809 662 787 441 783 433 c 0xfe
 778 425 775 424 755 424 c 0
 735 424 731 425 727 432 c 0xfd
 723 438 723 440 725 459 c 0xfe
 727 473 727 484 727 507 c 2
 727 524 l 2
 727 576 701 603 655 612 c 0
 632 617 626 617 538 618 c 2
 456 618 l 1
 455 614 l 2
 455 612 441 557 424 491 c 2
 394 371 l 1
 429 371 l 2
 466 372 477 373 491 378 c 0
 526 389 542 422 552 464 c 0
 558 487 560 488 586 488 c 0
 601 488 603 488 607 486 c 0
 610 484 616 478 616 473 c 0
 616 465 552 207 549 201 c 0
 543 192 542 192 521 192 c 0
 501 192 497 193 493 200 c 0
 489 207 489 209 492 224 c 0
 497 243 499 257 499 269 c 0
 499 288 493 298 479 303 c 0
 467 308 458 308 417 308 c 2
 379 309 l 1
 348 188 l 2
 332 122 318 66 318 65 c 2
 317 62 l 1
 375 62 l 2
 424 62 433 62 436 60 c 0
 443 57 447 52 447 45 c 0
 447 38 440 12 438 8 c 0
 434 4 431 2 426 0 c 2
 377 1 l 2
 347 2 288 2 231 2 c 0
 154 2 112 0 65 0 c 0
 50 0 47 4 43 15 c 0
 43 17 44 23 47 35 c 0
 52 54 53 57 60 60 c 0
 64 62 68 62 113 62 c 2
 162 62 l 1
 163 66 l 2xfd
EndSplineSet
EndChar

StartChar: G
Encoding: 71 71 9
Width: 887
GlyphClass: 2
Flags: MW
HStem: -16 62<358 422> 0 21G<667 673> 214 62<464 519 464 581> 640 62<518 540 540 550.5 518 590.5>
VStem: 56 154<154 262.5>
LayerCount: 2
Fore
SplineSet
803 276 m 0xb8
 818 276 826 270 826 258 c 0
 826 253 819 227 817 223 c 0
 815 220 813 218 810 216 c 0
 806 214 805 214 771 214 c 2
 736 214 l 1
 736 210 684 7 683 5 c 0
 681 3 675 0 671 0 c 0x78
 663 0 610 25 597 36 c 0
 585 42 587 49 576 40 c 0
 533 4 465 -16 379 -16 c 0
 197 -16 75 65 57 217 c 0
 56 225 56 240 56 255 c 0
 56 270 56 285 57 294 c 0
 90 531 279 685 518 702 c 1
 540 702 l 2
 561 702 586 702 595 701 c 0
 647 693 692 672 726 639 c 1
 731 635 l 1
 776 668 l 2
 801 686 822 701 824 702 c 0
 826 703 828 703 832 703 c 0
 844 703 854 700 854 690 c 0
 854 685 790 430 788 426 c 0
 784 419 783 419 755 419 c 0
 728 420 727 420 724 427 c 0
 723 430 722 433 722 437 c 0
 722 447 725 460 725 469 c 0
 725 546 695 604 642 628 c 0
 620 638 606 640 575 640 c 0
 426 640 323 569 272 464 c 0
 247 414 225 338 215 273 c 0
 212 251 210 232 210 214 c 0
 210 94 297 46 419 46 c 0
 477 46 518 63 543 93 c 0
 553 106 555 110 569 164 c 0
 575 191 581 214 581 214 c 1
 519 214 l 2
 458 214 457 214 452 216 c 0
 448 218 443 225 443 230 c 0
 443 237 450 264 452 268 c 0
 456 272 459 274 464 276 c 2
 514 275 l 2
 546 274 603 274 657 274 c 0
 728 274 765 276 803 276 c 0xb8
EndSplineSet
EndChar

StartChar: H
Encoding: 72 72 10
Width: 982
GlyphClass: 2
Flags: MW
HStem: 0 62<57.5 162> 326 62<383 695> 624 62<236.5 239 230.5 272.5 687.5 705.5>
LayerCount: 2
Fore
SplineSet
162 62 m 1
 165 76 302 620 302 623 c 0
 302 624 287 624 258 624 c 0
 215 624 214 624 209 626 c 0
 204 628 201 633 199 639 c 0
 199 641 200 647 203 659 c 0
 208 678 209 681 216 684 c 0
 220 686 222 686 239 686 c 0
 290 684 348 684 403 684 c 0
 458 684 506 686 553 686 c 0
 568 686 576 680 576 668 c 0
 576 662 569 635 566 631 c 0
 565 630 562 627 560 626 c 0
 555 624 554 624 506 624 c 2
 457 624 l 1
 399 389 l 2
 399 388 465 388 547 388 c 2
 695 388 l 1
 753 623 l 2
 753 624 733 624 709 624 c 0
 666 624 665 624 660 626 c 0
 655 628 652 633 650 639 c 0
 650 641 651 647 654 659 c 0
 660 682 660 686 681 686 c 0
 730 686 774 684 847 684 c 0
 917 684 960 686 1004 686 c 0
 1019 686 1027 680 1027 668 c 0
 1027 662 1020 635 1017 631 c 0
 1016 630 1013 627 1011 626 c 0
 1006 624 1005 624 957 624 c 2
 908 624 l 1
 839 344 l 2
 800 190 768 64 768 63 c 0
 768 62 777 62 812 62 c 0
 853 62 857 62 861 60 c 0
 867 57 871 51 871 44 c 0
 871 38 864 11 861 7 c 0
 859 5 854 2 850 0 c 2
 808 1 l 2
 782 2 728 2 675 2 c 0
 604 2 562 0 516 0 c 0
 501 0 498 4 494 15 c 0
 494 17 495 23 498 35 c 0
 503 54 504 57 511 60 c 0
 515 62 519 62 564 62 c 2
 613 62 l 1
 614 66 l 2
 614 72 679 324 679 324 c 2
 679 326 672 326 531 326 c 2
 383 326 l 1
 382 322 l 2
 382 316 317 64 317 64 c 2
 317 62 319 62 361 62 c 0
 402 62 406 62 410 60 c 0
 416 57 420 51 420 44 c 0
 420 38 413 11 410 7 c 0
 408 5 403 2 399 0 c 2
 357 1 l 2
 331 2 277 2 224 2 c 0
 153 2 111 0 65 0 c 0
 50 0 47 4 43 15 c 0
 43 17 44 23 47 35 c 0
 52 54 53 57 60 60 c 0
 64 62 68 62 113 62 c 2
 162 62 l 1
EndSplineSet
EndChar

StartChar: I
Encoding: 73 73 11
Width: 511
GlyphClass: 2
Flags: MW
HStem: 1 61<82 154 352 352> 624 62<224 226 216.5 262.5>
LayerCount: 2
Fore
SplineSet
154 62 m 1
 157 76 294 620 294 623 c 0
 294 624 278 624 247 624 c 0
 201 624 200 624 196 626 c 0
 191 629 186 633 186 640 c 0
 186 651 193 681 202 684 c 0
 206 686 207 686 226 686 c 0
 277 684 336 684 393 684 c 0
 451 684 503 686 553 686 c 0
 565 686 573 681 573 670 c 0
 573 663 566 636 564 632 c 0
 562 630 559 627 557 626 c 0
 553 624 552 624 501 624 c 2
 449 624 l 1
 380 344 l 2
 341 190 309 64 309 63 c 0
 309 62 319 62 356 62 c 0
 402 62 403 62 408 60 c 0
 412 58 417 51 417 46 c 0
 417 39 410 12 408 8 c 0
 404 4 401 2 396 0 c 2
 352 1 l 2
 325 2 270 2 216 2 c 0
 162 2 107 2 82 1 c 2
 45 0 l 2
 38 3 30 7 30 16 c 0
 30 29 37 54 46 60 c 0
 51 62 52 62 102 62 c 2
 154 62 l 1
EndSplineSet
EndChar

StartChar: J
Encoding: 74 74 12
Width: 631
GlyphClass: 2
Flags: MW
HStem: -17 52<206 231 206 231> 624 62<349 359 349 393 332 359>
VStem: 42 110<42.5 121>
LayerCount: 2
Fore
SplineSet
677 686 m 0
 685 686 694 679 694 669 c 0
 694 665 693 660 691 652 c 0
 684 625 685 624 647 624 c 2
 602 624 l 1
 542 380 l 2
 508 246 480 133 478 129 c 0
 456 60 388 13 312 -5 c 0
 282 -13 249 -17 213 -17 c 0
 183 -17 164 -15 139 -8 c 0
 86 5 54 32 43 70 c 0
 42 75 42 80 42 93 c 0
 42 149 75 182 119 192 c 0
 125 194 132 194 139 194 c 0
 181 194 205 166 205 131 c 0
 205 92 179 58 152 45 c 1
 152 40 199 35 213 35 c 0
 249 35 268 47 289 65 c 0
 306 82 319 103 329 129 c 0
 331 136 453 620 453 623 c 0
 453 624 433 624 393 624 c 2
 332 624 l 2
 326 627 318 631 318 640 c 0
 318 651 325 681 334 684 c 0
 338 686 339 686 359 686 c 0
 413 684 476 684 533 684 c 0
 592 684 634 686 677 686 c 0
EndSplineSet
EndChar

StartChar: K
Encoding: 75 75 13
Width: 971
GlyphClass: 2
Flags: MW
HStem: 0 62<57.5 162 829 840 840 846> 609 75 617 67<884 888> 624 62<236.5 239 230.5 272.5 973 974.5>
LayerCount: 2
Fore
SplineSet
986 686 m 0x90
 993 686 1003 679 1003 669 c 0
 1003 658 992 630 991 629 c 0
 986 625 982 624 967 624 c 0x90
 940 624 905 621 888 617 c 0xa0
 880 617 870 609 865 609 c 0xc0
 863 608 600 421 599 420 c 0
 599 418 772 66 775 65 c 0
 778 64 807 62 829 62 c 2
 840 62 l 2
 853 62 853 61 860 54 c 0
 864 48 864 45 860 28 c 0
 854 10 856 0 836 0 c 0
 795 0 759 2 694 2 c 0
 647 2 599 2 573 1 c 2
 536 0 l 2
 531 2 528 4 524 8 c 0
 520 14 520 17 524 34 c 0
 529 51 530 53 533 57 c 0
 538 61 542 62 557 62 c 0
 572 62 599 64 601 65 c 2
 472 330 l 1
 365 255 l 1
 342 160 l 2
 329 108 318 65 317 64 c 0
 317 62 319 62 361 62 c 0
 402 62 406 62 410 60 c 0
 416 57 420 51 420 44 c 0
 420 38 413 11 410 7 c 0
 408 5 403 2 399 0 c 2
 357 1 l 2
 331 2 277 2 224 2 c 0
 153 2 111 0 65 0 c 0
 50 0 47 4 43 15 c 0
 43 17 44 23 47 35 c 0
 52 54 53 57 60 60 c 0
 64 62 68 62 113 62 c 2
 162 62 l 1
 165 76 302 620 302 623 c 0
 302 624 287 624 258 624 c 0x90
 215 624 214 624 209 626 c 0
 204 628 201 633 199 639 c 0
 199 641 200 647 203 659 c 0
 208 678 209 681 216 684 c 0xa0
 220 686 222 686 239 686 c 0x90
 290 684 348 684 403 684 c 0xa0
 458 684 506 686 553 686 c 0
 568 686 576 680 576 668 c 0
 576 662 569 635 566 631 c 0
 565 630 562 627 560 626 c 0
 555 624 554 624 506 624 c 2
 457 624 l 1
 422 481 l 2
 402 402 386 338 386 337 c 2
 785 621 l 2
 783 622 758 624 749 624 c 0
 737 624 732 627 728 634 c 0
 725 639 725 643 730 659 c 0
 735 681 736 682 747 686 c 1x90
 786 685 l 2
 812 684 851 684 888 684 c 0xc0
 937 684 960 686 986 686 c 0x90
EndSplineSet
EndChar

StartChar: L
Encoding: 76 76 14
Width: 756
GlyphClass: 2
Flags: MW
HStem: 0 62<113 162 342.5 369.5 58 162> 624 62<236.5 239 230.5 272.5>
LayerCount: 2
Fore
SplineSet
162 62 m 1
 165 76 302 620 302 623 c 0
 302 624 287 624 258 624 c 0
 215 624 214 624 209 626 c 0
 204 628 201 633 199 639 c 0
 199 641 200 647 203 659 c 0
 208 678 209 681 216 684 c 0
 220 686 222 686 239 686 c 0
 290 684 350 684 409 684 c 0
 468 684 525 686 579 686 c 0
 595 686 603 681 603 668 c 0
 603 662 596 635 593 631 c 0
 592 629 589 627 587 626 c 0
 583 624 579 624 520 624 c 2
 457 624 l 1
 388 344 l 2
 349 190 317 64 317 63 c 0
 317 62 332 62 353 62 c 0
 386 62 432 63 441 64 c 0
 546 81 607 160 643 261 c 0
 654 289 654 289 680 289 c 0
 701 289 702 289 709 279 c 0
 711 274 711 272 711 269 c 0
 710 265 616 13 613 8 c 0
 611 4 607 2 602 0 c 2
 58 0 l 2
 50 3 46 6 43 15 c 0
 43 17 44 23 47 35 c 0
 52 54 53 57 60 60 c 0
 64 62 68 62 113 62 c 2
 162 62 l 1
EndSplineSet
EndChar

StartChar: M
Encoding: 77 77 15
Width: 1142
GlyphClass: 2
Flags: MW
HStem: 0 62<73.5 80 293.5 311.5 1010.5 1024.5> 624 62<1100 1100 1100 1124>
LayerCount: 2
Fore
SplineSet
63 0 m 0
 50 0 46 5 43 15 c 0
 43 17 44 23 47 35 c 0
 54 62 53 62 94 62 c 0
 124 63 147 64 164 69 c 1
 233 345 l 2
 271 496 302 621 302 622 c 0
 302 624 299 624 258 624 c 0
 216 624 213 624 209 626 c 0
 205 628 201 633 199 639 c 0
 199 641 200 647 203 659 c 0
 208 678 209 681 216 684 c 0
 220 686 226 686 347 686 c 2
 473 686 l 2
 476 684 482 681 484 677 c 0
 487 673 490 657 535 413 c 2
 584 153 l 2
 584 152 664 268 761 410 c 0
 858 551 940 670 943 673 c 0
 949 679 955 682 962 686 c 1
 1082 686 l 2
 1166 686 1204 686 1206 685 c 0
 1214 683 1219 676 1219 668 c 0
 1219 662 1212 635 1209 631 c 0
 1208 629 1205 627 1203 626 c 0
 1199 624 1195 624 1149 624 c 2
 1100 624 l 1
 1031 344 l 2
 992 190 960 64 960 63 c 0
 960 62 969 62 1004 62 c 0
 1045 62 1049 62 1053 60 c 0
 1059 57 1063 51 1063 44 c 0
 1063 38 1056 11 1053 7 c 0
 1050 1 1045 0 1034 0 c 0
 987 0 944 2 875 2 c 0
 807 2 768 0 725 0 c 0
 711 0 707 4 703 15 c 0
 703 17 704 23 707 35 c 0
 712 54 713 57 720 60 c 0
 724 62 728 62 773 62 c 2
 822 62 l 1
 827 81 961 615 961 619 c 2
 754 318 l 2
 640 152 545 14 543 12 c 0
 535 4 528 0 510 0 c 0
 488 0 480 3 477 19 c 0
 476 22 451 156 421 315 c 2
 367 604 l 1
 299 335 l 2
 243 108 234 73 234 68 c 0
 234 64 285 62 302 62 c 0
 321 62 325 61 330 56 c 0
 332 53 334 50 334 46 c 0
 334 42 332 35 330 25 c 0
 325 4 324 0 306 0 c 0
 269 0 235 2 181 2 c 0
 128 2 97 0 63 0 c 0
EndSplineSet
EndChar

StartChar: N
Encoding: 78 78 16
Width: 950
GlyphClass: 2
Flags: MW
HStem: 0 62<73.5 80> 624 62<763 779>
VStem: 836 71<616.5 617 616.5 619>
LayerCount: 2
Fore
SplineSet
63 0 m 0
 50 0 46 5 43 15 c 0
 43 17 44 23 47 35 c 0
 54 62 53 62 94 62 c 0
 124 63 146 64 164 69 c 1
 233 345 l 2
 271 496 302 621 302 622 c 0
 302 624 299 624 258 624 c 0
 215 624 214 624 209 626 c 0
 204 628 201 633 199 639 c 0
 199 641 200 647 203 659 c 0
 208 678 209 681 216 684 c 0
 220 686 226 686 344 686 c 2
 432 686 l 2
 468 686 466 685 477 680 c 0
 479 678 737 227 739 227 c 0
 743 227 836 608 836 618 c 0
 836 620 836 620 835 620 c 0
 834 620 828 621 821 622 c 0
 813 622 795 623 779 624 c 0
 747 624 744 625 740 632 c 0
 735 638 735 641 740 659 c 0
 746 681 746 686 763 686 c 0
 800 686 835 684 890 684 c 0
 929 684 968 684 986 685 c 0
 1009 686 1013 686 1016 684 c 0
 1023 681 1027 676 1027 668 c 0
 1027 662 1020 635 1017 631 c 0
 1011 625 1011 624 1000 624 c 2
 978 624 l 2
 942 623 910 620 907 617 c 0
 907 616 756 13 753 8 c 0
 749 1 746 0 733 0 c 2
 723 0 l 1
 711 0 l 2
 698 0 698 1 692 7 c 0
 691 9 616 139 526 296 c 2
 361 580 l 1
 296 323 l 2
 242 106 234 73 234 68 c 0
 234 64 285 62 302 62 c 0
 317 62 320 62 324 60 c 0
 330 57 334 51 334 44 c 0
 334 38 327 11 324 7 c 0
 322 5 317 2 313 0 c 2
 280 1 l 2
 260 2 220 2 181 2 c 0
 128 2 97 0 63 0 c 0
EndSplineSet
EndChar

StartChar: O
Encoding: 79 79 17
Width: 837
GlyphClass: 2
Flags: MW
HStem: -17 57<309.5 379.5 309.5 389> 648 55<479.5 559.5>
VStem: 53 155<158 227.5 155.5 250> 664 151<423 538.5>
LayerCount: 2
Fore
SplineSet
344 -17 m 0
 165 -17 53 71 53 245 c 0
 53 255 53 264 54 270 c 0
 62 356 98 449 151 519 c 0
 229 624 357 703 523 703 c 0
 681 703 782 632 808 511 c 0
 812 490 815 468 815 445 c 0
 815 401 807 354 791 307 c 0
 756 197 686 106 592 50 c 0
 528 10 434 -17 344 -17 c 0
664 489 m 0
 664 588 608 648 511 648 c 0
 448 648 380 619 334 570 c 0
 292 526 264 472 241 392 c 0
 220 315 208 249 208 206 c 0
 208 105 261 40 358 40 c 0
 401 40 448 54 490 83 c 0
 545 121 589 185 618 270 c 0
 633 313 650 379 657 423 c 0
 661 447 664 469 664 489 c 0
EndSplineSet
EndChar

StartChar: P
Encoding: 80 80 18
Width: 723
GlyphClass: 2
Flags: MW
HStem: 0 62<58.5 162> 287 56<381 458 381 469 373 458> 624 62<342 452 342 529>
VStem: 692 155<545 567.5>
LayerCount: 2
Fore
SplineSet
162 62 m 1
 165 76 302 620 302 623 c 0
 302 624 287 624 258 624 c 0
 215 624 214 624 209 626 c 0
 202 629 199 633 199 640 c 0
 199 644 201 650 203 657 c 0
 208 678 209 681 217 684 c 0
 220 686 245 686 439 686 c 0
 673 685 664 686 693 680 c 0
 779 667 847 620 847 528 c 0
 847 485 832 443 803 404 c 0
 759 346 687 308 604 293 c 0
 571 288 571 288 469 287 c 2
 373 287 l 1
 346 176 l 2
 330 115 318 65 317 64 c 0
 317 62 319 62 361 62 c 0
 408 62 409 62 414 57 c 0
 417 55 420 48 420 44 c 0
 420 39 413 13 411 9 c 0
 408 4 405 2 399 0 c 2
 357 1 l 2
 331 2 277 2 224 2 c 0
 153 2 111 0 65 0 c 0
 52 0 43 4 43 17 c 0
 43 20 44 24 47 33 c 0
 52 54 53 57 61 60 c 0
 64 62 72 62 113 62 c 2
 162 62 l 1
617 622 m 0
 607 623 593 623 529 624 c 2
 452 624 l 1
 381 343 l 1
 458 343 l 2
 541 344 544 344 568 349 c 0
 597 356 627 372 641 389 c 0
 658 409 666 430 679 480 c 0
 689 522 692 532 692 558 c 0
 692 577 688 586 676 597 c 0
 663 610 644 618 617 622 c 0
EndSplineSet
EndChar

StartChar: Q
Encoding: 81 81 19
Width: 869
GlyphClass: 2
Flags: MW
HStem: -194 162<514.5 618.5> -17 55<355.5 358> 112 50<377.5 387.5 377.5 398.5> 648 55<476.5 562>
VStem: 53 148<172 221 172 250> 666 149<423 534>
LayerCount: 2
Fore
SplineSet
704 18 m 0
 714 18 722 10 722 0 c 0
 722 -4 715 -27 710 -41 c 0
 705 -56 688 -90 680 -103 c 0
 642 -162 593 -194 541 -194 c 0
 488 -194 458 -164 448 -109 c 0
 445 -91 444 -78 443 -41 c 2
 443 -7 l 1
 433 -9 l 2
 407 -14 372 -17 344 -17 c 0
 167 -17 53 70 53 245 c 0
 53 255 53 264 54 270 c 0
 62 356 98 449 151 519 c 0
 229 624 357 703 523 703 c 0
 681 703 782 632 808 511 c 0
 812 490 815 468 815 445 c 0
 815 401 807 354 791 307 c 0
 747 169 652 67 519 14 c 1
 525 4 l 2
 536 -13 547 -23 561 -29 c 0
 565 -30 577 -32 592 -32 c 0
 645 -32 678 -20 686 3 c 0
 689 11 694 18 704 18 c 0
666 482 m 0
 666 586 612 648 512 648 c 0
 441 648 382 619 335 573 c 0
 282 520 249 450 220 332 c 0
 206 275 201 240 201 202 c 0
 201 142 217 101 252 72 c 2
 259 66 l 1
 262 76 l 2
 272 121 314 151 359 161 c 0
 365 162 373 162 382 162 c 0
 393 162 404 162 410 160 c 0
 443 151 464 132 484 92 c 2
 491 78 l 1
 498 83 l 2
 547 117 585 167 612 235 c 0
 635 291 658 383 665 447 c 0
 666 455 666 469 666 482 c 0
383 112 m 0
 354 112 311 93 311 63 c 0
 311 55 316 47 324 42 c 0
 330 39 345 38 366 38 c 0
 389 39 406 42 429 49 c 0
 437 52 439 52 439 56 c 0
 439 58 438 61 437 67 c 0
 429 97 414 112 383 112 c 0
EndSplineSet
EndChar

StartChar: R
Encoding: 82 82 20
Width: 872
GlyphClass: 2
Flags: MW
HStem: -17 52<730.5 742.5> 0 62<58 162> 318 51<424 441 375 458> 624 62<236.5 422 324.5 451 324.5 513>
VStem: 537 164<74.5 100.5 74.5 100.5> 567 152<232 253 231 259.5> 687 156<547 554 529 587.5> 819 62
LayerCount: 2
Fore
SplineSet
162 62 m 1x74
 165 76 302 620 302 623 c 0
 302 624 287 624 258 624 c 0
 215 624 214 624 209 626 c 0
 204 628 201 633 199 639 c 0
 199 641 200 647 203 659 c 0
 208 678 209 681 216 684 c 0
 220 686 227 686 422 686 c 0
 634 685 629 685 664 680 c 0
 726 672 775 650 806 620 c 0
 828 598 843 573 843 535 c 0x72
 843 523 842 509 840 501 c 0
 829 453 795 410 742 378 c 0
 698 350 651 339 651 338 c 2
 651 338 664 332 688 310 c 0
 706 291 719 269 719 237 c 0x74
 719 225 701 107 701 94 c 0
 701 55 713 35 748 35 c 0
 754 35 761 35 765 37 c 0
 788 45 810 72 819 101 c 0
 821 109 823 112 828 115 c 0
 831 117 833 117 849 117 c 0
 869 117 872 116 876 111 c 0
 879 107 881 103 881 99 c 0
 881 83 868 62 858 46 c 0
 842 23 813 -3 781 -11 c 0
 765 -17 757 -17 728 -17 c 0
 629 -15 537 8 537 94 c 0xb9
 537 107 540 123 552 170 c 0
 562 210 567 221 567 243 c 0
 567 276 551 299 529 309 c 0
 512 318 515 317 441 318 c 2
 375 318 l 1
 374 314 l 2
 374 311 312 65 311 64 c 0
 311 62 313 62 355 62 c 0
 396 62 400 62 404 60 c 0
 410 57 414 51 414 44 c 0
 414 38 407 11 404 7 c 0
 402 5 397 2 393 0 c 2
 351 1 l 2
 325 2 273 2 221 2 c 0
 151 2 110 0 65 0 c 0x74
 51 0 46 5 43 15 c 0
 43 17 44 23 47 35 c 0xb4
 52 54 53 57 60 60 c 0
 64 62 68 62 113 62 c 2
 162 62 l 1x74
687 555 m 0
 687 620 621 624 548 624 c 2
 513 624 l 1
 451 624 l 1
 420 498 l 2
 403 429 388 372 388 371 c 0
 388 369 390 369 458 369 c 0
 514 370 530 370 540 371 c 0
 575 376 601 385 624 400 c 0
 649 417 663 442 676 492 c 0
 683 519 687 539 687 555 c 0
EndSplineSet
EndChar

StartChar: S
Encoding: 83 83 21
Width: 693
GlyphClass: 2
Flags: MW
HStem: -16 61<317 360> 645 57<431 449 449 458 431 499.5>
VStem: 120 57<221 221> 182 126<442.5 523.5> 506 125<180.5 294>
LayerCount: 2
Fore
SplineSet
618 458 m 2
 605 458 598 460 598 476 c 0
 598 487 600 501 600 511 c 0
 600 601 545 645 454 645 c 0
 383 645 325 605 310 541 c 0
 308 535 308 527 308 520 c 0
 308 483 332 461 363 452 c 0
 371 449 509 417 519 415 c 0
 582 394 631 334 631 254 c 0
 631 234 629 220 624 199 c 0
 596 87 510 5 392 -14 c 0
 379 -16 373 -16 347 -16 c 0
 287 -16 242 -7 202 12 c 0
 189 18 172 30 162 37 c 1
 130 11 l 2
 112 -3 96 -15 95 -16 c 0
 93 -17 89 -17 82 -17 c 0
 68 -16 68 -13 63 -5 c 1
 90 107 l 2
 106 168 119 220 120 221 c 0
 123 227 126 228 148 228 c 0
 170 228 173 227 177 222 c 0
 180 218 180 214 177 202 c 0
 175 190 173 179 173 168 c 0
 173 75 259 45 354 45 c 0
 386 45 404 51 427 61 c 0
 466 81 495 119 505 165 c 0
 506 170 506 177 506 184 c 0
 506 215 494 235 477 250 c 0
 449 270 340 285 294 300 c 0
 246 315 208 352 192 398 c 0
 185 415 182 433 182 452 c 0
 182 468 184 484 189 501 c 0
 201 547 224 589 257 623 c 0
 303 668 361 695 431 702 c 1
 449 702 l 2
 467 702 491 702 501 701 c 0
 546 694 584 678 610 654 c 0
 614 649 615 649 617 650 c 0
 618 651 682 701 683 702 c 0
 685 703 688 703 692 703 c 0
 705 703 714 700 714 690 c 0
 714 685 661 471 658 466 c 0
 654 459 653 458 644 458 c 2
 629 458 l 1
 618 458 l 2
EndSplineSet
EndChar

StartChar: T
Encoding: 84 84 22
Width: 637
GlyphClass: 2
Flags: MW
HStem: 0 62<66 100.5 451 494> 613 62<300 347 300 300 502 502 502 544>
VStem: 22 67 209 156<63 65.5> 686 86
LayerCount: 2
Fore
SplineSet
72 0 m 0
 55 0 46 5 46 17 c 0
 46 24 53 50 55 54 c 0
 59 58 62 60 66 62 c 2
 137 62 l 2
 192 62 208 62 209 63 c 0
 209 64 241 188 278 339 c 2
 347 613 l 1
 300 613 l 2
 249 612 239 611 217 606 c 0
 188 599 162 583 146 564 c 0
 125 541 110 509 89 449 c 0
 78 423 85 419 52 419 c 0
 33 419 29 420 24 427 c 0
 23 429 22 431 22 434 c 0
 22 448 100 665 100 666 c 0
 103 670 106 673 111 675 c 2
 434 675 l 2
 746 675 758 675 762 673 c 0
 768 670 772 665 772 657 c 0
 772 654 740 445 738 434 c 0
 736 420 727 419 707 419 c 0
 692 419 690 419 686 421 c 0
 681 423 677 429 677 434 c 0
 676 436 677 443 678 450 c 0
 683 482 686 510 686 529 c 0
 686 575 671 594 638 605 c 0
 618 612 598 613 544 613 c 2
 502 613 l 1
 433 340 l 2
 396 190 365 66 365 65 c 2
 364 62 l 1
 498 62 l 2
 502 60 505 58 509 54 c 0
 513 48 513 45 509 28 c 0
 503 9 506 0 482 0 c 0
 420 0 364 2 271 2 c 0
 181 2 129 0 72 0 c 0
EndSplineSet
EndChar

StartChar: U
Encoding: 85 85 23
Width: 800
GlyphClass: 2
Flags: MW
HStem: -16 61<299 337> 624 62<102 104 95.5 137.5 613.5 630>
VStem: 63 146<109.5 146 104.5 182> 686 71<614 617 614 619>
LayerCount: 2
Fore
SplineSet
328 -16 m 0
 179 -16 63 43 63 176 c 0
 63 188 64 200 65 209 c 0
 68 231 167 620 167 623 c 0
 167 624 152 624 123 624 c 0
 81 624 78 624 74 626 c 0
 70 628 66 633 64 639 c 0
 64 641 65 647 68 659 c 0
 73 678 74 681 81 684 c 0
 85 686 87 686 104 686 c 0
 155 684 213 684 268 684 c 0
 323 684 371 686 418 686 c 0
 433 686 441 680 441 668 c 0
 441 662 434 635 431 631 c 0
 430 629 427 627 425 626 c 0
 421 624 417 624 371 624 c 2
 322 624 l 1
 270 415 l 2
 217 202 215 195 212 173 c 0
 210 162 209 151 209 141 c 0
 209 68 262 45 336 45 c 0
 468 45 550 107 585 211 c 0
 586 215 686 599 686 618 c 0
 686 620 686 620 685 620 c 0
 684 620 678 621 671 622 c 0
 663 622 645 623 630 624 c 0
 597 624 595 625 590 631 c 0
 585 638 585 641 590 659 c 0
 596 681 596 686 613 686 c 0
 650 686 685 684 740 684 c 0
 779 684 818 684 836 685 c 0
 859 686 863 686 866 684 c 0
 873 681 877 676 877 668 c 0
 877 661 869 634 867 631 c 0
 862 625 859 624 828 624 c 0
 792 623 760 620 757 617 c 0
 757 611 653 205 651 200 c 0
 610 82 510 2 374 -15 c 0
 365 -16 346 -16 328 -16 c 0
EndSplineSet
EndChar

StartChar: V
Encoding: 86 86 24
Width: 678
GlyphClass: 2
Flags: MW
HStem: 617 67<777.5 779> 624 62<98 99 88.5 116 88.5 156 644 652>
LayerCount: 2
Fore
SplineSet
650 686 m 0x40
 685 686 717 684 766 684 c 0
 801 684 836 684 850 685 c 0
 871 686 871 686 876 684 c 0x80
 881 682 884 677 886 671 c 0
 886 669 885 663 882 651 c 0
 876 626 874 624 850 624 c 0x40
 822 624 791 621 779 617 c 0x80
 776 617 772 615 770 613 c 0
 764 607 356 1 350 -5 c 0
 345 -10 338 -13 332 -16 c 2
 306 -16 l 2
 284 -16 280 -16 277 -15 c 0
 272 -12 268 -7 267 -2 c 0
 266 0 241 142 210 313 c 2
 156 624 l 1
 116 624 l 2
 80 624 76 624 73 626 c 0
 66 629 62 635 62 642 c 0
 62 648 69 675 72 679 c 0
 79 686 78 686 99 686 c 0x40
 144 684 195 684 246 684 c 0x80
 288 684 330 684 368 685 c 2
 401 686 l 2
 406 684 409 682 413 678 c 0
 417 672 417 669 413 652 c 0
 408 635 407 633 404 629 c 0
 398 624 397 624 356 624 c 0
 335 624 318 624 318 623 c 0
 318 616 396 174 397 174 c 0
 398 173 699 619 699 620 c 0
 698 621 669 623 652 624 c 0
 630 624 627 625 622 632 c 0
 618 638 618 641 622 658 c 0
 627 675 628 678 632 681 c 0
 636 684 638 686 650 686 c 0x40
EndSplineSet
EndChar

StartChar: W
Encoding: 87 87 25
Width: 1093
GlyphClass: 2
Flags: MW
HStem: 624 62<93.5 98 87 111 87 147 1176.5 1180.5>
VStem: 147 160<620 623 618.5 624 618.5 624> 558 160<622 623 619 624 619 624>
LayerCount: 2
Fore
SplineSet
1190 686 m 0
 1198 686 1207 679 1207 669 c 0
 1207 665 1206 660 1204 652 c 0
 1197 625 1197 624 1164 624 c 0
 1138 623 1115 624 1101 615 c 0
 1098 612 1049 534 905 305 c 0
 774 94 712 -4 709 -7 c 0
 707 -9 702 -12 699 -14 c 0
 694 -16 693 -17 673 -17 c 0
 653 -17 653 -17 648 -15 c 0
 644 -13 641 -11 639 -8 c 0
 635 0 581 441 581 441 c 2
 581 443 518 343 442 221 c 0
 348 71 301 -3 298 -6 c 0
 296 -9 291 -12 288 -14 c 0
 282 -16 281 -17 263 -17 c 0
 250 -17 242 -17 239 -16 c 0
 234 -14 228 -10 227 -5 c 0
 223 6 148 617 147 620 c 2
 147 624 l 1
 111 624 l 2
 76 624 74 624 70 626 c 0
 66 628 61 635 61 640 c 0
 61 647 68 674 70 678 c 0
 78 686 76 686 98 686 c 0
 140 684 189 684 239 684 c 0
 288 684 337 686 383 686 c 0
 400 686 407 681 407 668 c 0
 407 663 400 637 398 633 c 0
 396 630 394 628 391 626 c 0
 387 624 387 624 348 624 c 2
 324 624 l 2
 314 624 307 624 307 622 c 0
 307 615 313 568 332 409 c 0
 347 292 359 196 359 195 c 2
 570 532 l 1
 564 576 l 2
 561 600 559 621 558 622 c 2
 558 624 l 1
 522 624 l 2
 493 624 486 624 483 626 c 0
 476 629 472 634 472 641 c 0
 472 648 479 674 481 678 c 0
 485 682 488 684 493 686 c 2
 529 685 l 2
 551 684 597 684 645 684 c 0
 709 684 751 686 795 686 c 0
 810 686 818 680 818 669 c 0
 818 662 811 636 809 632 c 0
 802 625 802 623 793 623 c 0
 787 623 778 624 759 624 c 0
 737 624 718 624 718 622 c 0
 718 616 724 566 743 410 c 0
 758 293 770 197 770 196 c 0
 770 195 830 290 903 406 c 0
 976 523 1035 618 1035 619 c 0
 1033 620 988 624 968 624 c 0
 950 624 942 629 942 641 c 0
 942 646 944 652 946 659 c 0
 951 681 952 682 963 686 c 1
 998 685 l 2
 1020 684 1058 684 1093 684 c 0
 1141 684 1163 686 1190 686 c 0
EndSplineSet
EndChar

StartChar: X
Encoding: 88 88 26
Width: 947
GlyphClass: 2
Flags: MW
HStem: 0 62<53 103.5 794.5 807.5> 624 62<246 247 240 268 240 313 527 542.5>
LayerCount: 2
Fore
SplineSet
53 0 m 2
 46 3 38 8 38 17 c 0
 38 28 49 56 50 57 c 0
 55 61 59 62 78 62 c 0
 129 62 175 66 188 75 c 0
 191 76 397 285 435 324 c 2
 444 334 l 1
 439 347 l 2
 435 354 406 419 373 492 c 2
 313 624 l 1
 268 624 l 2
 224 624 223 624 219 626 c 0
 212 629 209 633 209 640 c 0
 209 644 210 650 212 658 c 0
 217 673 216 681 227 684 c 0
 230 686 233 686 247 686 c 0
 295 684 346 684 398 684 c 0
 449 684 503 686 551 686 c 0
 565 686 569 681 572 671 c 0
 572 669 571 663 568 651 c 0
 561 624 562 624 523 624 c 0
 508 624 494 624 492 623 c 2
 488 623 l 1
 526 540 l 2
 546 495 563 457 564 457 c 1
 564 456 601 492 645 537 c 2
 724 619 l 2
 721 620 694 623 677 624 c 0
 661 624 658 625 654 626 c 0
 650 628 645 635 645 640 c 0
 645 647 652 674 654 678 c 0
 658 682 661 684 666 686 c 2
 704 685 l 2
 728 684 771 684 813 684 c 0
 855 684 896 684 913 685 c 0
 939 686 939 686 944 684 c 0
 948 682 953 675 953 670 c 0
 953 663 946 636 944 632 c 0
 937 625 938 624 925 624 c 2
 914 624 l 2
 880 624 839 621 820 618 c 0
 813 616 809 615 803 611 c 0
 799 608 591 397 591 396 c 0
 591 395 625 320 667 229 c 2
 743 62 l 1
 787 62 l 2
 828 62 832 62 836 60 c 0
 842 57 846 51 846 44 c 0
 846 38 839 11 836 7 c 0
 833 2 828 0 817 0 c 0
 772 0 733 2 664 2 c 0
 596 2 553 0 508 0 c 0
 493 0 484 5 484 18 c 0
 484 20 486 28 488 37 c 0
 494 62 493 61 534 62 c 0
 552 62 566 63 566 63 c 2
 567 64 472 274 471 274 c 0
 468 274 268 69 268 67 c 0
 268 66 299 63 315 62 c 0
 324 62 333 61 335 61 c 0
 342 59 347 52 347 44 c 0
 347 39 340 13 338 9 c 0
 335 4 332 2 326 0 c 2
 287 1 l 2
 263 2 219 2 177 2 c 0
 135 2 95 2 78 1 c 2
 53 0 l 2
EndSplineSet
EndChar

StartChar: Y
Encoding: 89 89 27
Width: 675
GlyphClass: 2
Flags: MW
HStem: 0 62<131 236 430.5 450.5> 624 62<74.5 77 66 97 66 142 360.5 361 625 636 843.5 847.5>
LayerCount: 2
Fore
SplineSet
858 686 m 0
 866 686 876 680 876 669 c 0
 876 665 875 660 873 652 c 0
 866 624 866 624 829 624 c 0
 784 623 761 621 747 611 c 0
 745 609 674 533 590 441 c 2
 437 275 l 1
 411 170 l 2
 397 113 385 65 384 64 c 0
 384 62 386 62 429 62 c 0
 472 62 473 62 478 60 c 0
 485 57 488 53 488 46 c 0
 488 42 486 36 484 29 c 0
 479 5 480 0 454 0 c 0
 407 0 365 2 294 2 c 0
 224 2 183 0 138 0 c 0
 124 0 119 5 116 15 c 0
 116 17 117 23 120 35 c 0
 125 54 126 57 133 60 c 0
 137 62 141 62 187 62 c 2
 236 62 l 1
 289 275 l 1
 142 624 l 1
 97 624 l 2
 52 624 51 625 48 627 c 0
 44 629 40 635 40 640 c 0
 40 647 47 674 49 678 c 0
 57 686 55 686 77 686 c 0
 122 684 174 684 228 684 c 0
 281 684 336 686 385 686 c 0
 400 686 406 681 406 670 c 0
 406 665 405 659 403 653 c 0
 396 625 398 624 361 624 c 2
 353 624 l 2
 335 624 321 624 321 623 c 0
 321 622 431 360 432 360 c 1
 432 359 487 418 553 490 c 2
 673 620 l 1
 666 622 642 624 630 624 c 0
 616 624 606 628 606 640 c 0
 606 644 608 651 610 661 c 0
 615 682 616 686 634 686 c 0
 670 686 705 684 755 684 c 0
 804 684 829 686 858 686 c 0
EndSplineSet
EndChar

StartChar: Z
Encoding: 90 90 28
Width: 773
GlyphClass: 2
Flags: MW
HStem: 0 67<266 266 266 348> 624 62<540 610 540 540>
VStem: 648 67
LayerCount: 2
Fore
SplineSet
684 299 m 0
 705 299 715 297 715 281 c 0
 715 277 631 12 628 8 c 0
 626 4 622 2 617 0 c 2
 348 0 l 2
 56 0 74 0 71 5 c 0
 69 7 68 9 68 12 c 0
 68 17 75 46 77 49 c 0
 78 50 139 117 213 196 c 2
 610 624 l 1
 540 624 l 2
 482 623 467 623 456 622 c 0
 424 618 396 610 373 600 c 0
 319 573 280 523 255 449 c 0
 249 431 247 430 223 430 c 0
 206 430 202 431 198 435 c 0
 195 437 192 444 192 448 c 0
 192 451 259 672 261 677 c 0
 263 680 266 683 270 684 c 0
 273 686 304 686 534 686 c 0
 726 686 796 686 797 685 c 0
 801 683 805 679 805 673 c 0
 805 669 798 643 798 641 c 0
 797 639 678 510 531 352 c 2
 266 67 l 1
 329 66 l 2
 392 66 418 67 440 70 c 0
 562 84 611 158 648 268 c 0
 657 295 652 299 684 299 c 0
EndSplineSet
EndChar

StartChar: a
Encoding: 97 97 29
Width: 633
GlyphClass: 2
Flags: MW
HStem: -8 51<208.5 243.5 208.5 249> 401 51<319 344.5>
VStem: 38 128<103 122 86 168.5> 343 123<63 103.5>
LayerCount: 2
Fore
SplineSet
222 -8 m 0
 112 -8 38 48 38 158 c 0
 38 179 41 202 48 227 c 0
 71 326 142 403 233 436 c 0
 262 446 292 452 327 452 c 0
 403 452 427 416 433 416 c 2
 434 416 l 2
 435 416 437 418 440 420 c 0
 451 428 468 435 486 435 c 0
 516 435 538 415 538 386 c 0
 538 365 477 145 467 93 c 0
 466 87 466 79 466 72 c 0
 466 54 471 43 484 43 c 0
 519 43 531 98 541 134 c 0
 548 161 547 162 571 162 c 2
 576 162 l 2
 595 162 597 162 600 160 c 0
 604 158 607 153 607 148 c 0
 607 145 602 128 598 115 c 0
 575 46 537 2 493 -6 c 0
 487 -7 481 -8 474 -8 c 0
 426 -8 379 13 358 40 c 1
 321 12 276 -8 222 -8 c 0
404 351 m 1
 391 380 365 401 324 401 c 0
 314 401 305 399 295 396 c 0
 262 385 237 363 221 330 c 0
 210 305 201 277 186 220 c 0
 171 157 166 138 166 106 c 0
 166 66 189 43 228 43 c 0
 259 43 291 56 310 71 c 0
 323 80 343 99 343 103 c 0
 343 104 357 161 374 228 c 2
 404 351 l 1
EndSplineSet
EndChar

StartChar: b
Encoding: 98 98 30
Width: 521
GlyphClass: 2
Flags: MW
HStem: -8 52<203.5 244 203.5 264> 400 52<302.5 340> 622 68
VStem: 45 117<103.5 117.5 91.5 162> 385 128<325 338 278 358.5>
LayerCount: 2
Fore
SplineSet
220 -8 m 0
 113 -8 45 52 45 155 c 0
 45 169 46 185 47 194 c 0
 50 210 53 222 104 426 c 2
 153 622 l 1
 149 622 l 2
 146 623 134 623 122 624 c 0
 110 624 98 625 96 625 c 0
 89 627 84 634 84 642 c 0
 84 649 92 676 94 679 c 0
 99 686 98 686 185 690 c 0
 240 693 262 694 272 694 c 0
 285 694 291 688 293 679 c 0
 293 676 287 651 263 553 c 2
 232 429 l 2
 232 428 274 452 331 452 c 0
 441 452 513 391 513 285 c 0
 513 271 512 257 509 242 c 0
 498 178 469 121 427 77 c 0
 380 30 308 -8 220 -8 c 0
385 337 m 0
 385 380 362 400 318 400 c 0
 283 400 251 382 226 360 c 0
 210 346 213 355 191 268 c 0
 172 189 165 160 163 140 c 0
 162 132 162 122 162 113 c 0
 162 70 181 44 226 44 c 0
 262 44 283 57 303 77 c 0
 319 93 328 108 340 139 c 0
 347 159 354 182 365 226 c 0
 379 280 385 313 385 337 c 0
EndSplineSet
EndChar

StartChar: c
Encoding: 99 99 31
Width: 513
GlyphClass: 2
Flags: MW
HStem: -8 51<234.5 305 234.5 313.5> 401 50<336 352 352 360 336 361>
VStem: 40 130<105.5 130 93.5 197.5> 362 136
LayerCount: 2
Fore
SplineSet
259 -8 m 0
 133 -8 40 44 40 167 c 0
 40 228 58 271 88 318 c 0
 142 393 220 442 336 451 c 1
 352 451 l 2
 368 451 390 451 396 450 c 0
 450 441 487 415 496 380 c 0
 499 368 499 360 498 351 c 0
 493 309 464 274 417 274 c 0
 385 274 362 295 362 325 c 0
 362 350 375 375 393 388 c 0
 397 391 400 394 399 394 c 0
 397 398 367 401 355 401 c 0
 302 401 256 373 231 338 c 0
 207 301 186 235 177 178 c 0
 172 157 170 138 170 122 c 0
 170 65 205 43 264 43 c 0
 346 43 415 64 457 105 c 0
 470 118 473 120 480 117 c 0
 484 114 509 94 509 83 c 0
 509 78 505 72 497 64 c 0
 444 12 368 -8 259 -8 c 0
EndSplineSet
EndChar

StartChar: d
Encoding: 100 100 32
Width: 610
GlyphClass: 2
Flags: MW
HStem: -8 51<208.5 243.5 208.5 249 477 477.5> 401 51<319 344.5> 622 68
VStem: 38 128<103 122 86 168.5> 343 123<62 103.5>
LayerCount: 2
Fore
SplineSet
222 -8 m 0
 112 -8 38 48 38 158 c 0
 38 179 41 202 48 227 c 0
 76 350 184 452 329 452 c 0
 361 452 395 444 416 428 c 0
 420 426 422 424 422 424 c 2
 423 424 434 469 447 523 c 2
 472 622 l 1
 468 622 l 2
 465 623 453 623 441 624 c 0
 429 624 417 625 415 625 c 0
 408 627 403 634 403 642 c 0
 403 649 411 676 413 679 c 0
 418 686 417 686 504 690 c 0
 559 693 581 694 591 694 c 0
 604 694 610 688 612 679 c 0
 612 675 467 91 467 91 c 2
 466 87 466 79 466 72 c 0
 466 52 471 43 483 43 c 0
 518 43 532 98 541 134 c 0
 548 161 547 162 571 162 c 2
 576 162 l 2
 595 162 597 162 600 160 c 0
 604 158 607 153 607 148 c 0
 607 145 602 128 598 115 c 0
 575 46 537 2 493 -6 c 0
 487 -7 481 -8 474 -8 c 0
 426 -8 379 13 358 40 c 1
 321 12 276 -8 222 -8 c 0
404 351 m 1
 391 380 365 401 324 401 c 0
 314 401 305 399 295 396 c 0
 262 385 237 363 221 330 c 0
 210 305 201 277 186 220 c 0
 171 157 166 138 166 106 c 0
 166 66 189 43 228 43 c 0
 259 43 291 56 310 71 c 0
 323 80 343 99 343 103 c 0
 343 104 357 161 374 228 c 2
 404 351 l 1
EndSplineSet
EndChar

StartChar: e
Encoding: 101 101 33
Width: 554
GlyphClass: 2
Flags: MW
HStem: -8 51<235 305.5 235 314> 211 51<220 222 184 237> 401 50<360 374>
VStem: 42 129<97 176> 427 75<349 366>
LayerCount: 2
Fore
SplineSet
171 126 m 0
 171 68 206 43 264 43 c 0
 347 43 414 65 457 105 c 0
 470 118 473 120 480 117 c 0
 484 114 509 94 509 83 c 0
 509 78 505 72 497 64 c 0
 444 12 368 -8 260 -8 c 0
 138 -8 57 43 43 146 c 0
 42 152 42 160 42 169 c 0
 42 183 43 199 44 210 c 0
 47 225 54 253 58 266 c 0
 102 374 194 440 335 451 c 0
 336 451 340 452 345 452 c 0
 350 452 357 451 363 451 c 0
 439 451 502 419 502 352 c 0
 502 346 502 340 501 336 c 0
 493 298 474 271 442 250 c 0
 398 222 335 211 222 211 c 2
 184 211 l 2
 184 210 183 204 181 197 c 0
 176 171 171 151 171 126 c 0
427 349 m 0
 427 383 394 401 354 401 c 0
 323 401 290 391 264 374 c 0
 232 351 216 321 202 278 c 0
 200 271 198 264 197 263 c 0
 197 262 203 262 237 262 c 0
 300 263 335 267 364 278 c 0
 397 290 427 310 427 349 c 0
EndSplineSet
EndChar

StartChar: f
Encoding: 102 102 34
Width: 568
GlyphClass: 2
Flags: MW
HStem: -201 50<174 183.5> -201 168<146 161 122 183.5> 382 62<219 318 256 307 445 505> 533 168<492 566.5> 651 50<504.5 509>
VStem: 64 136<-98 -94.5> 307 127<381.5 382> 319 126<446 447 444 451>
LayerCount: 2
Fore
SplineSet
200 -84 m 0x66
 200 -112 185 -134 166 -150 c 1
 174 -151 l 1
 185 -151 l 2
 196 -149 208 -134 217 -112 c 0
 219 -105 224 -83 240 9 c 0
 253 77 307 381 307 382 c 2xa6
 247 382 l 2
 191 382 187 382 184 384 c 0
 177 387 173 393 173 400 c 0
 173 406 180 433 183 437 c 0
 184 439 187 441 189 442 c 0
 193 444 197 444 256 444 c 2
 318 444 l 1
 319 446 l 1
 319 456 336 538 338 548 c 0
 356 633 410 692 492 701 c 1
 503 701 l 2xad
 515 701 532 701 538 700 c 0
 592 690 624 659 624 617 c 0
 624 572 589 533 544 533 c 0x35
 512 533 488 552 488 585 c 0
 488 605 497 626 513 642 c 0
 517 646 520 649 520 650 c 2
 520 650 515 650 509 651 c 0
 500 651 499 651 494 649 c 0
 483 643 470 627 465 611 c 0
 461 599 460 591 459 554 c 2
 458 518 l 1
 452 484 l 2
 449 465 446 448 445 447 c 2
 445 444 l 1x2d
 584 444 l 2
 588 442 591 440 595 436 c 0
 599 430 599 427 595 410 c 0
 590 393 589 391 586 387 c 0
 580 382 582 382 505 382 c 2
 434 382 l 1
 434 380 l 1
 430 376 393 132 368 30 c 0
 345 -63 322 -111 280 -152 c 0
 255 -177 231 -191 203 -199 c 0
 194 -201 192 -201 175 -201 c 0xae
 117 -201 64 -173 64 -117 c 0
 64 -72 99 -33 145 -33 c 0
 177 -33 200 -54 200 -84 c 0x66
EndSplineSet
EndChar

StartChar: g
Encoding: 103 103 35
Width: 545
GlyphClass: 2
Flags: MW
HStem: -202 52<132.5 183 183 202.5 123 207.5> 0 51<216.5 243> 401 50<332 346.5>
VStem: 0 136<-133.5 -81.5> 43 128<112.5 135 89.5 172.5> 324 100
LayerCount: 2
Fore
SplineSet
227 0 m 0xf4
 116 0 43 59 43 166 c 0xec
 43 179 44 192 46 205 c 0
 68 337 168 439 310 451 c 0
 311 451 314 452 319 452 c 0
 324 452 329 451 335 451 c 0
 378 451 405 440 429 421 c 0
 432 418 435 416 436 416 c 0
 437 416 439 418 442 420 c 0
 452 427 470 435 488 435 c 0
 518 435 540 415 540 386 c 0
 540 368 424 -81 424 -82 c 0
 411 -115 384 -143 355 -160 c 0
 308 -188 248 -202 167 -202 c 0
 98 -202 39 -193 14 -166 c 0
 4 -155 0 -142 0 -125 c 0
 0 -80 34 -43 81 -43 c 0
 114 -43 136 -64 136 -99 c 0
 133 -120 124 -135 114 -149 c 1
 123 -150 l 1
 183 -150 l 2
 222 -150 250 -134 270 -114 c 0
 285 -100 293 -89 299 -74 c 0
 302 -67 324 22 324 23 c 1
 323 23 318 21 311 18 c 0
 286 8 259 0 227 0 c 0xf4
171 109 m 0
 171 70 198 51 235 51 c 0
 257 51 273 57 296 67 c 0
 310 75 326 86 337 98 c 2
 345 106 l 1
 407 353 l 1
 403 359 l 2
 389 385 364 401 329 401 c 0
 305 401 282 393 262 378 c 0
 237 359 222 332 205 280 c 0
 193 232 171 161 171 109 c 0
EndSplineSet
EndChar

StartChar: h
Encoding: 104 104 36
Width: 668
GlyphClass: 2
Flags: MW
HStem: -8 51<466.5 490> 400 51<370.5 405> 622 68
VStem: 45 124<39 39> 358 119<50 91.5> 433 123<331 366.5> 577 65
LayerCount: 2
Fore
SplineSet
99 -8 m 0xf6
 71 -8 45 10 45 39 c 0
 45 53 56 95 116 336 c 2
 188 622 l 1
 184 622 l 2
 181 623 169 623 157 624 c 0
 145 624 133 625 131 625 c 0
 124 627 119 634 119 642 c 0
 119 649 127 676 129 679 c 0
 134 686 133 686 220 690 c 0
 275 693 297 694 307 694 c 0
 320 694 326 688 328 679 c 0
 328 676 322 649 294 540 c 0
 276 465 260 404 260 403 c 0
 260 401 263 403 269 408 c 0
 307 437 340 451 401 451 c 0
 428 451 438 451 457 447 c 0
 519 434 556 400 556 337 c 0xf6
 556 325 555 311 554 303 c 0
 546 262 528 207 497 127 c 0
 482 88 480 80 478 66 c 0
 477 61 477 57 477 54 c 0
 477 46 480 43 490 43 c 0
 505 44 519 51 532 63 c 0
 552 83 567 109 577 140 c 0
 583 161 583 162 605 162 c 2
 611 162 l 2
 630 162 632 162 635 160 c 0
 639 158 642 153 642 148 c 0
 642 142 632 112 624 97 c 0
 599 47 550 2 499 -6 c 0
 493 -7 485 -8 478 -8 c 0
 455 -8 429 -2 411 7 c 0
 376 24 358 51 358 83 c 0xfa
 358 100 359 104 373 138 c 0
 414 245 433 311 433 350 c 0
 433 383 422 400 388 400 c 0
 345 400 318 386 291 363 c 0
 273 347 249 320 236 298 c 0
 230 289 175 57 169 40 c 0
 157 11 128 -8 99 -8 c 0xf6
EndSplineSet
EndChar

StartChar: i
Encoding: 105 105 37
Width: 405
GlyphClass: 2
Flags: MW
HStem: -8 50<210.5 221 210.5 238> 402 50<170 180.5> 562 130
VStem: 24 65 83 119<53.5 61 51.5 87> 189 119<384 390.5 357 393> 205 134<618.5 635> 302 65
LayerCount: 2
Fore
SplineSet
258 562 m 0xe2
 225 562 205 586 205 615 c 0
 205 655 236 683 267 692 c 0
 272 693 278 694 283 694 c 0
 316 694 339 673 339 641 c 0
 339 596 295 562 258 562 c 0xe2
201 -8 m 0
 139 -8 83 23 83 84 c 0xe9
 83 90 84 97 85 102 c 0
 86 105 183 356 184 358 c 0
 187 369 189 380 189 388 c 0
 189 398 184 402 177 402 c 0
 163 402 139 385 134 380 c 0
 114 362 98 335 89 304 c 0
 83 283 83 282 61 282 c 2
 55 282 l 2
 36 282 34 282 31 284 c 0
 27 286 24 291 24 296 c 0
 24 300 30 318 35 330 c 0
 59 390 111 452 187 452 c 0
 250 452 308 421 308 360 c 0xf4
 308 354 307 347 306 342 c 0
 305 340 207 88 207 87 c 0
 204 75 202 65 202 57 c 0
 202 46 207 42 214 42 c 0
 228 42 252 59 257 64 c 0
 277 82 293 109 302 140 c 0
 308 161 308 162 330 162 c 2
 336 162 l 2
 355 162 357 162 360 160 c 0
 364 158 367 153 367 148 c 0xe9
 367 144 361 126 356 114 c 0
 331 53 275 -8 201 -8 c 0
EndSplineSet
EndChar

StartChar: j
Encoding: 106 106 38
Width: 471
GlyphClass: 2
Flags: MW
HStem: -202 52<60.5 105> 401 50<276 285> 562 132<378.5 399>
VStem: -12 136<-150.5 -78> 297 123<339 383> 321 135<621.5 635.5>
LayerCount: 2
Fore
SplineSet
321 616 m 0xf4
 321 655 357 694 400 694 c 0
 433 694 456 673 456 640 c 0
 456 603 422 562 376 562 c 0
 346 562 321 583 321 616 c 0xf4
88 -202 m 0
 33 -202 -12 -176 -12 -125 c 0
 -12 -86 20 -43 68 -43 c 0
 99 -43 124 -63 124 -93 c 0
 124 -110 117 -130 106 -144 c 0
 101 -150 101 -150 103 -150 c 0
 107 -150 119 -146 127 -142 c 0
 154 -128 178 -99 191 -64 c 0
 194 -56 290 322 294 345 c 0
 296 355 297 365 297 373 c 0
 297 393 294 401 276 401 c 0
 244 399 212 379 186 347 c 0
 174 332 167 321 158 303 c 0
 149 283 150 282 129 282 c 2
 123 282 l 2
 104 282 103 282 99 284 c 0
 94 287 92 292 92 298 c 0
 93 306 106 330 119 350 c 0
 146 391 186 424 227 440 c 0
 241 446 260 451 279 451 c 0
 353 451 404 425 418 376 c 0
 420 370 420 366 420 354 c 2
 420 339 l 1xf8
 371 142 l 2
 344 34 321 -58 319 -63 c 0
 298 -139 212 -186 129 -199 c 0
 117 -201 101 -202 88 -202 c 0
EndSplineSet
EndChar

StartChar: k
Encoding: 107 107 39
Width: 604
GlyphClass: 2
Flags: MW
HStem: -7 51<398 442 439 440> 400 52<481 487> 622 68
VStem: 299 123<64.5 83 64.5 100.5> 304 127<133.5 155> 514 64
LayerCount: 2
Fore
SplineSet
99 -8 m 0xec
 72 -8 45 11 45 39 c 0
 45 53 56 95 116 336 c 2
 188 622 l 1
 184 622 l 2
 181 623 169 623 157 624 c 0
 145 624 133 625 131 625 c 0
 124 627 119 634 119 642 c 0
 119 649 127 676 129 679 c 0
 134 686 133 686 220 690 c 0
 275 693 297 694 307 694 c 0
 320 694 326 688 328 679 c 0
 328 676 319 638 280 482 c 0
 253 376 231 288 231 287 c 0
 231 285 231 285 234 286 c 0
 254 299 276 317 313 351 c 0
 364 397 385 414 413 430 c 0
 439 444 469 452 493 452 c 0
 541 452 564 414 564 364 c 0
 564 301 537 261 483 256 c 1
 480 256 l 2
 449 256 425 275 425 308 c 0
 425 356 462 382 502 389 c 0
 502 391 498 397 496 398 c 0
 493 400 491 400 483 400 c 0
 465 400 448 396 427 385 c 0
 402 373 381 356 330 311 c 0
 297 280 285 272 268 257 c 1
 268 257 274 256 282 256 c 0
 299 253 326 248 341 244 c 0
 372 235 397 220 411 202 c 0
 424 188 431 170 431 146 c 0xec
 431 121 422 93 422 73 c 0
 422 56 425 44 439 44 c 2
 442 44 l 2
 450 44 451 44 459 47 c 0
 481 58 501 92 514 141 c 0
 519 162 519 162 547 162 c 0
 566 162 568 162 571 160 c 0
 575 158 578 153 578 148 c 0
 578 144 571 121 566 108 c 0
 544 54 510 15 473 0 c 0
 461 -5 453 -7 440 -7 c 2
 432 -7 l 2
 364 -7 299 28 299 94 c 0xf4
 299 107 304 126 304 139 c 0
 304 171 277 189 246 198 c 0
 236 202 216 206 212 206 c 2
 211 206 l 1
 211 206 176 47 160 24 c 0
 145 3 121 -8 99 -8 c 0xec
EndSplineSet
EndChar

StartChar: l
Encoding: 108 108 40
Width: 348
GlyphClass: 2
Flags: MW
HStem: -8 51<161.5 171.5> 622 68
VStem: 27 123<62 106 62 106> 225 66
LayerCount: 2
Fore
SplineSet
275 694 m 0
 288 694 294 688 296 679 c 0
 296 675 151 91 151 91 c 2
 150 85 150 78 150 71 c 0
 150 53 155 43 168 43 c 0
 185 43 197 61 205 75 c 0
 212 89 219 110 225 134 c 0
 232 161 231 162 255 162 c 2
 260 162 l 2
 279 162 281 162 284 160 c 0
 288 158 291 153 291 148 c 0
 291 147 290 141 288 135 c 0
 275 88 255 49 231 24 c 0
 208 2 186 -8 157 -8 c 0
 89 -8 42 24 29 68 c 0
 27 74 27 78 27 91 c 2
 27 106 l 1
 156 622 l 1
 152 622 l 2
 149 623 137 623 125 624 c 0
 113 624 101 625 99 625 c 0
 92 627 87 634 87 642 c 0
 87 649 95 676 97 679 c 0
 102 686 101 686 188 690 c 0
 243 693 265 694 275 694 c 0
EndSplineSet
EndChar

StartChar: m
Encoding: 109 109 41
Width: 1032
GlyphClass: 2
Flags: MW
HStem: -8 51<845.5 867 845.5 877.5> 401 51<144 156 749 768>
VStem: 24 65 90 124<39 39> 409 124<39 39> 721 119<53 93.5> 796 122<343 344 322.5 368>
LayerCount: 2
Fore
SplineSet
143 -8 m 0xfa
 116 -8 90 10 90 39 c 0
 90 56 164 347 164 347 c 2
 166 355 166 364 166 372 c 0
 166 390 163 401 149 401 c 0
 122 401 105 370 89 306 c 0
 83 282 83 282 55 282 c 0
 36 282 34 282 31 284 c 0
 27 286 24 291 24 296 c 0
 24 297 26 304 27 310 c 0
 42 363 66 405 93 428 c 0
 113 444 129 452 159 452 c 0
 184 452 214 446 234 435 c 0
 261 422 273 408 285 384 c 1
 289 387 292 389 298 395 c 0
 326 419 358 437 389 445 c 0
 411 451 417 451 446 451 c 0
 517 451 566 433 589 390 c 0
 592 384 594 380 595 375 c 1
 604 384 l 2
 631 410 665 431 695 441 c 0
 719 449 736 452 762 452 c 0
 843 452 899 429 916 367 c 0
 918 356 918 354 918 334 c 0xfa
 918 311 918 307 911 281 c 0
 901 238 887 197 860 127 c 0
 852 106 840 75 840 57 c 0
 840 49 842 43 849 43 c 0
 885 43 922 82 940 138 c 0
 947 161 947 162 969 162 c 2
 975 162 l 2
 994 162 996 162 999 160 c 0
 1003 158 1006 153 1006 148 c 0
 1006 145 1001 129 997 117 c 0
 973 56 914 -8 841 -8 c 0
 800 -8 767 6 746 26 c 0
 730 41 721 60 721 82 c 0xfc
 721 105 725 110 736 137 c 0
 762 204 777 250 787 292 c 0
 793 316 796 335 796 351 c 0
 796 385 783 401 753 401 c 0
 718 401 691 390 665 371 c 0
 645 357 614 323 599 298 c 0
 595 290 540 60 533 40 c 0
 522 15 497 -8 462 -8 c 0
 435 -8 409 10 409 39 c 0
 409 59 473 305 476 320 c 0
 478 330 478 340 478 348 c 0
 478 385 467 400 433 400 c 0
 390 400 363 386 336 363 c 0
 318 347 294 320 281 298 c 0
 275 289 220 57 214 40 c 0
 203 15 178 -8 143 -8 c 0xfa
EndSplineSet
EndChar

StartChar: n
Encoding: 110 110 42
Width: 713
GlyphClass: 2
Flags: MW
HStem: -8 51<526.5 548 526.5 558.5> 401 51<144 156 442 449>
VStem: 24 65 90 124<39 39> 402 119<53 93.5> 477 122<343 344 322.5 368>
LayerCount: 2
Fore
SplineSet
143 -8 m 0xf4
 116 -8 90 10 90 39 c 0
 90 56 164 347 164 347 c 2
 166 355 166 364 166 372 c 0
 166 390 163 401 149 401 c 0
 122 401 105 370 89 306 c 0
 83 282 83 282 55 282 c 0
 36 282 34 282 31 284 c 0
 27 286 24 291 24 296 c 0
 24 297 26 304 27 310 c 0
 42 363 66 405 93 428 c 0
 113 444 129 452 159 452 c 0
 184 452 214 446 234 435 c 0
 261 422 273 408 285 384 c 1
 293 391 l 2
 328 421 361 439 399 447 c 0
 417 451 430 452 454 452 c 0
 529 449 581 427 597 367 c 0
 599 356 599 354 599 334 c 0xf4
 599 311 599 307 592 281 c 0
 582 238 568 197 541 127 c 0
 533 106 521 75 521 57 c 0
 521 49 523 43 530 43 c 0
 566 43 603 82 621 138 c 0
 628 161 628 162 650 162 c 2
 656 162 l 2
 675 162 677 162 680 160 c 0
 684 158 687 153 687 148 c 0
 687 145 682 129 678 117 c 0
 654 56 595 -8 522 -8 c 0
 481 -8 448 6 427 26 c 0
 411 41 402 60 402 82 c 0xf8
 402 105 406 110 417 137 c 0
 443 204 458 250 468 292 c 0
 474 316 477 335 477 351 c 0
 477 385 464 401 434 401 c 0
 399 401 372 390 346 371 c 0
 328 358 302 330 285 305 c 2
 278 295 l 1
 247 170 l 2
 230 102 215 43 214 40 c 0
 203 15 178 -8 143 -8 c 0xf4
EndSplineSet
EndChar

StartChar: o
Encoding: 111 111 43
Width: 585
GlyphClass: 2
Flags: MW
HStem: -8 52<231.5 265.5> 400 52<354 354.5>
VStem: 39 131<109 137.5 97 205.5> 445 131<313 323.5>
LayerCount: 2
Fore
SplineSet
254 -8 m 0
 127 -8 39 49 39 169 c 0
 39 242 75 313 127 363 c 0
 171 406 225 433 292 446 c 0
 302 448 324 451 336 451 c 0
 338 451 349 452 359 452 c 0
 481 452 576 397 576 279 c 0
 576 259 573 238 567 216 c 0
 538 102 443 22 323 -2 c 0
 301 -6 277 -8 254 -8 c 0
170 126 m 0
 170 68 203 44 260 44 c 0
 344 44 385 93 409 157 c 0
 421 189 439 263 444 295 c 0
 445 301 445 309 445 317 c 0
 445 330 444 342 443 348 c 0
 434 375 412 393 382 399 c 0
 375 400 360 400 349 400 c 0
 296 400 254 371 231 338 c 0
 213 311 202 283 187 220 c 0
 174 169 170 149 170 126 c 0
EndSplineSet
EndChar

StartChar: p
Encoding: 112 112 44
Width: 601
GlyphClass: 2
Flags: MW
HStem: -194 62<3 10.5 194.5 210.5> -8 51<286.5 311 286.5 336.5> 401 51<153 154 387 422.5>
VStem: 165 123<340.5 382> 465 128<323 340.5 278 358.5>
LayerCount: 2
Fore
SplineSet
-3 -194 m 0
 -15 -194 -23 -187 -23 -176 c 0
 -23 -171 -16 -145 -14 -141 c 0
 -9 -133 -8 -132 3 -132 c 2
 20 -132 l 1
 44 -132 l 1
 164 354 l 2
 165 357 165 365 165 372 c 0
 165 392 160 401 148 401 c 0
 113 401 99 346 90 310 c 0
 83 283 84 282 60 282 c 2
 55 282 l 2
 36 282 34 282 31 284 c 0
 27 286 24 291 24 296 c 0
 24 299 29 316 33 329 c 0
 56 397 93 441 136 450 c 0
 142 451 149 452 157 452 c 0
 206 452 252 431 273 404 c 1
 310 432 355 452 409 452 c 0
 520 452 593 396 593 285 c 0
 593 271 591 257 589 242 c 0
 576 165 535 97 480 53 c 0
 428 13 371 -8 302 -8 c 0
 265 -8 231 3 209 20 c 0
 208 19 171 -130 171 -131 c 0
 171 -132 181 -132 198 -132 c 0
 223 -132 226 -132 230 -134 c 0
 236 -137 240 -143 240 -150 c 0
 240 -156 233 -183 230 -187 c 0
 228 -192 221 -194 212 -194 c 0
 177 -194 143 -192 95 -192 c 0
 49 -192 24 -194 -3 -194 c 0
465 339 m 0
 465 378 442 401 403 401 c 0
 371 401 341 388 321 373 c 0
 308 364 288 345 288 341 c 0
 288 340 274 283 257 216 c 2
 227 93 l 1
 239 64 267 43 306 43 c 0
 316 43 327 45 336 48 c 0
 369 59 394 81 410 115 c 0
 421 139 430 167 445 224 c 0
 460 286 465 307 465 339 c 0
EndSplineSet
EndChar

StartChar: q
Encoding: 113 113 45
Width: 542
GlyphClass: 2
Flags: MW
HStem: -194 62<211 283 433 449.5> -8 52<208.5 248.5> 401 51<299.5 341.5>
VStem: 38 128<106 119 86.5 166>
LayerCount: 2
Fore
SplineSet
220 -8 m 0
 110 -8 38 53 38 159 c 0
 38 173 39 187 42 202 c 0
 54 269 84 328 129 372 c 0
 175 416 240 452 327 452 c 0
 373 452 401 438 429 418 c 1
 437 426 458 435 482 441 c 0
 498 445 529 452 533 452 c 0
 541 452 550 444 550 437 c 0
 550 431 528 343 481 152 c 0
 442 -3 410 -130 410 -131 c 0
 410 -132 420 -132 437 -132 c 0
 462 -132 465 -132 469 -134 c 0
 475 -137 479 -143 479 -150 c 0
 479 -156 472 -183 469 -187 c 0
 467 -192 460 -194 451 -194 c 0
 415 -194 382 -192 330 -192 c 0
 280 -192 250 -194 217 -194 c 0
 205 -194 200 -189 197 -179 c 0
 197 -177 198 -171 201 -159 c 0
 208 -133 207 -132 243 -132 c 2
 283 -132 l 1
 319 15 l 2
 319 16 277 -8 220 -8 c 0
397 364 m 0
 381 387 359 401 324 401 c 0
 275 401 240 370 221 329 c 0
 209 304 200 276 186 218 c 0
 172 164 166 131 166 107 c 0
 166 66 188 44 229 44 c 0
 271 44 316 70 337 95 c 0
 342 102 402 341 402 353 c 0
 402 359 400 360 397 364 c 0
EndSplineSet
EndChar

StartChar: r
Encoding: 114 114 46
Width: 529
GlyphClass: 2
Flags: MW
HStem: 401 51<151 155 378 389.5>
VStem: 24 66 89 123<39 39>
LayerCount: 2
Fore
SplineSet
89 39 m 0xa0
 89 67 165 336 165 369 c 0
 165 387 162 401 148 401 c 0
 144 401 140 400 135 398 c 0
 110 385 99 346 90 310 c 0
 83 283 84 282 60 282 c 2
 55 282 l 2
 36 282 34 282 31 284 c 0
 27 286 24 291 24 296 c 0xc0
 24 301 33 331 41 349 c 0
 64 407 98 443 138 451 c 0
 143 452 148 452 154 452 c 0
 201 452 254 433 273 404 c 1
 282 411 l 2
 314 437 344 452 393 452 c 0
 457 452 500 408 500 350 c 0
 500 300 470 256 418 256 c 0
 387 256 363 275 363 308 c 0
 363 329 373 352 389 367 c 0
 399 376 412 382 424 386 c 0
 424 388 415 394 410 396 c 0
 403 399 394 401 385 401 c 0
 371 401 356 397 343 390 c 0
 324 382 304 361 289 341 c 1
 252 192 l 2
 231 110 213 41 212 39 c 0
 200 14 176 -8 142 -8 c 0
 115 -8 89 10 89 39 c 0xa0
EndSplineSet
EndChar

StartChar: s
Encoding: 115 115 47
Width: 531
GlyphClass: 2
Flags: MW
HStem: -8 51<220 254 220 276.5> 400 51<305.5 334.5 289 336>
VStem: 57 137<83.5 138.5> 140 92<264.5 338> 366 91<109 188> 386 90<342.5 391.5>
LayerCount: 2
Fore
SplineSet
153 56 m 1xe8
 171 47 204 43 236 43 c 0
 272 43 297 47 321 60 c 0
 344 71 366 94 366 124 c 0xe8
 366 160 321 170 274 178 c 0
 253 182 234 185 232 186 c 0
 177 201 140 239 140 290 c 0
 140 318 151 350 170 379 c 0
 199 425 252 451 326 451 c 0
 343 451 366 451 373 450 c 0
 422 442 455 424 468 396 c 0
 473 386 476 374 476 363 c 0
 476 322 444 289 406 289 c 0
 378 289 357 307 357 335 c 0
 357 357 366 371 378 383 c 0
 383 387 386 391 386 391 c 2
 386 392 370 397 361 399 c 0
 355 400 342 400 330 400 c 0
 281 400 248 387 236 354 c 0
 233 347 232 341 232 335 c 0xd4
 232 326 235 319 242 312 c 0
 254 302 261 299 307 291 c 0
 364 281 379 276 403 260 c 0
 437 238 457 209 457 167 c 0
 457 139 447 106 427 77 c 0
 390 20 324 -8 229 -8 c 0
 150 -8 92 13 68 50 c 0
 61 62 57 76 57 91 c 0
 57 138 90 177 139 177 c 0
 172 177 194 156 194 121 c 0
 191 92 176 71 153 56 c 1xe8
EndSplineSet
EndChar

StartChar: t
Encoding: 116 116 48
Width: 415
GlyphClass: 2
Flags: MW
HStem: -7 50<194.5 203> 382 62<93 94.5 302.5 306>
VStem: 59 123<64 105 64 105> 185 121
LayerCount: 2
Fore
SplineSet
192 -7 m 0
 120 -7 59 24 59 90 c 2
 59 105 l 1
 128 381 l 2
 128 382 107 382 82 382 c 0
 36 382 35 382 31 384 c 0
 26 386 21 392 21 399 c 0
 21 410 32 438 33 439 c 0
 39 444 39 444 93 444 c 2
 144 444 l 1
 162 517 l 2
 178 582 181 592 185 600 c 0
 197 623 219 643 253 643 c 0
 283 643 306 623 306 594 c 0
 306 578 271 449 271 445 c 0
 271 444 288 444 317 444 c 0
 362 444 363 444 368 442 c 0
 372 440 377 433 377 428 c 0
 377 421 370 394 368 390 c 0
 366 388 363 385 361 384 c 0
 357 382 356 382 306 382 c 2
 255 382 l 1
 251 368 187 106 184 99 c 0
 182 90 182 82 182 75 c 0
 182 53 185 43 204 43 c 0
 230 45 255 58 279 81 c 0
 298 101 308 116 321 142 c 0
 330 161 330 162 350 162 c 2
 356 162 l 2
 375 162 376 162 380 160 c 0
 385 157 387 152 387 146 c 0
 385 135 364 97 347 75 c 0
 320 42 280 12 244 1 c 0
 224 -6 214 -7 192 -7 c 0
EndSplineSet
EndChar

StartChar: u
Encoding: 117 117 49
Width: 681
GlyphClass: 2
Flags: MW
HStem: -7 50<271.5 291.5> 401 51<176 218>
VStem: 116 122<90.5 136 90.5 145> 189 119<388.5 391 355.5 394> 391 123<63 105>
LayerCount: 2
Fore
SplineSet
535 444 m 0xe8
 562 444 588 426 588 397 c 0
 588 381 516 97 516 97 c 2
 514 89 514 80 514 72 c 0
 514 54 517 43 531 43 c 0
 542 43 548 47 556 56 c 0
 568 69 579 95 589 134 c 0
 596 161 595 162 619 162 c 2
 624 162 l 2
 643 162 645 162 648 160 c 0
 652 158 655 153 655 148 c 0
 655 145 650 128 646 115 c 0
 623 46 585 2 541 -6 c 0
 535 -7 528 -8 520 -8 c 0
 475 -8 429 12 408 38 c 2
 405 41 l 1
 397 34 l 2
 372 14 345 1 316 -5 c 0
 306 -7 302 -7 281 -7 c 0
 200 -7 140 19 122 78 c 0
 116 95 116 101 116 125 c 2
 116 136 l 2xe8
 116 154 118 163 124 187 c 0
 131 216 144 253 174 332 c 0
 184 356 186 365 188 379 c 0
 189 384 189 387 189 390 c 0
 189 398 186 401 176 401 c 0
 141 398 106 359 89 304 c 0
 83 283 83 282 61 282 c 2
 55 282 l 2
 36 282 34 282 31 284 c 0
 27 286 24 291 24 296 c 0
 24 300 30 318 34 330 c 0
 61 394 112 441 167 450 c 0
 173 451 180 452 187 452 c 0
 249 452 308 420 308 362 c 0xd8
 308 349 304 335 294 308 c 0
 254 208 242 165 238 122 c 1
 238 111 l 2
 238 70 252 43 291 43 c 0
 329 43 357 61 384 92 c 0
 389 98 391 102 391 103 c 0
 391 107 462 389 464 396 c 0
 475 421 500 444 535 444 c 0xe8
EndSplineSet
EndChar

StartChar: v
Encoding: 118 118 50
Width: 567
GlyphClass: 2
Flags: MW
HStem: -8 51<283 308.5> 401 51<176 181>
VStem: 24 65 116 122<91.5 122.5 91.5 134> 189 119<353 394> 462 78<265.5 383.5>
LayerCount: 2
Fore
SplineSet
238 114 m 0xf4
 238 69 260 43 306 43 c 0
 388 43 436 164 458 247 c 0
 461 257 462 263 462 268 c 0
 462 272 461 276 459 280 c 0
 453 291 439 303 417 315 c 0
 398 325 392 330 386 342 c 0
 382 350 380 358 380 367 c 0
 380 412 421 453 465 453 c 0
 513 453 540 410 540 357 c 0
 540 338 537 315 531 288 c 0
 505 169 453 59 373 13 c 0
 348 -2 325 -8 292 -8 c 0
 188 -8 116 30 116 129 c 0xf4
 116 139 116 150 117 158 c 0
 122 191 135 231 174 332 c 0
 184 356 186 365 188 379 c 0
 189 384 189 387 189 390 c 0
 189 398 186 401 176 401 c 0
 134 397 103 346 89 304 c 0
 83 283 83 282 61 282 c 2
 55 282 l 2
 36 282 34 282 31 284 c 0
 27 286 24 291 24 296 c 0
 24 300 30 319 35 332 c 0
 59 391 118 452 189 452 c 0
 259 452 308 410 308 362 c 0xec
 308 344 306 339 293 306 c 0
 270 248 254 203 248 179 c 0
 242 154 238 131 238 114 c 0xf4
EndSplineSet
EndChar

StartChar: w
Encoding: 119 119 51
Width: 831
GlyphClass: 2
Flags: MW
HStem: -8 51<292 332 556.5 580> 433 21G
VStem: 24 66 117 123<111 129.5 92 133.5> 189 120 387 124<90.5 135> 448 124<396 396> 718 78
LayerCount: 2
Fore
SplineSet
636 367 m 0xe5
 636 406 676 453 719 453 c 0
 726 453 735 451 741 450 c 0
 776 436 796 406 796 357 c 0
 796 338 793 315 787 288 c 0
 761 167 716 49 633 6 c 0
 612 -4 593 -8 567 -8 c 0
 496 -8 448 10 415 43 c 1
 383 11 358 -8 306 -8 c 0
 235 -8 182 8 150 41 c 0
 128 62 117 93 117 129 c 0xf5
 117 138 118 148 119 157 c 0
 123 190 136 230 175 332 c 0
 185 356 187 365 189 379 c 0
 190 389 190 396 187 399 c 0
 183 403 170 401 158 396 c 0
 130 384 104 350 90 306 c 0
 83 283 83 282 61 282 c 2
 55 282 l 2
 36 282 34 282 31 284 c 0
 27 286 24 291 24 296 c 0
 24 303 34 330 42 346 c 0
 70 402 114 439 163 450 c 0
 169 451 178 452 187 452 c 0
 232 452 263 439 286 416 c 0
 302 400 309 383 309 362 c 0xe9
 309 348 306 338 295 308 c 0
 279 268 266 233 259 211 c 0
 246 173 240 142 240 117 c 0
 240 67 267 43 317 43 c 0
 353 43 375 70 390 95 c 1
 389 106 387 118 387 129 c 0xf5
 387 141 389 153 391 167 c 0
 394 183 446 389 448 396 c 0
 459 421 484 444 519 444 c 0
 546 444 572 426 572 397 c 0xe3
 572 373 520 190 515 153 c 0
 512 138 511 126 511 114 c 0
 511 67 534 43 579 43 c 0
 605 43 621 53 637 69 c 0
 651 82 660 96 670 116 c 0
 686 147 700 189 714 245 c 0
 717 256 718 262 718 267 c 0
 718 272 717 276 715 280 c 0
 709 291 696 303 673 315 c 0
 654 325 648 330 642 342 c 0
 638 349 636 358 636 367 c 0xe5
EndSplineSet
EndChar

StartChar: x
Encoding: 120 120 52
Width: 659
GlyphClass: 2
Flags: MW
HStem: -7 50<155.5 177 155.5 181> 400 51<221.5 244 221.5 250.5>
VStem: 43 137<74.5 152.5> 535 64
LayerCount: 2
Fore
SplineSet
287 364 m 0
 287 391 265 400 236 400 c 0
 173 400 127 351 107 302 c 0
 103 287 102 287 98 284 c 0
 94 282 93 282 74 282 c 0
 55 282 53 282 50 284 c 0
 46 286 43 291 43 296 c 0
 43 297 45 304 47 310 c 0
 63 362 105 407 159 433 c 0
 183 443 207 451 236 451 c 0
 252 451 273 451 282 450 c 0
 324 442 363 429 382 400 c 1
 392 410 l 2
 417 435 444 452 483 452 c 0
 537 452 573 427 590 390 c 0
 596 378 599 361 599 346 c 0
 599 295 566 256 517 256 c 0
 486 256 462 275 462 308 c 0
 462 329 472 352 488 367 c 0
 498 375 511 381 520 385 c 0
 520 386 514 391 508 394 c 0
 498 399 492 400 480 400 c 0
 470 400 468 400 462 398 c 0
 442 389 424 368 415 341 c 0
 412 333 361 133 358 114 c 0
 355 100 354 89 354 80 c 0
 354 53 373 44 405 44 c 0
 436 44 458 54 478 68 c 0
 504 86 525 114 535 142 c 0
 539 157 540 157 544 160 c 0
 548 162 549 162 568 162 c 0
 587 162 589 162 592 160 c 0
 596 158 599 153 599 148 c 0
 599 143 591 120 585 109 c 0
 555 48 487 -8 397 -8 c 0
 337 -8 296 8 266 35 c 1
 258 44 l 1
 235 17 206 -7 156 -7 c 0
 126 -7 108 -2 91 10 c 0
 63 27 43 54 43 95 c 0
 43 111 46 129 53 143 c 0
 66 166 91 188 125 188 c 0
 156 188 180 169 180 136 c 0
 180 115 170 92 154 77 c 0
 144 69 131 63 122 59 c 1
 125 50 150 43 161 43 c 0
 193 43 217 77 226 103 c 0
 229 111 280 311 283 330 c 0
 286 344 287 355 287 364 c 0
EndSplineSet
EndChar

StartChar: y
Encoding: 121 121 53
Width: 590
GlyphClass: 2
Flags: MW
HStem: -202 52<200 211.5 200 224> -7 50<271 301.5 271 309.5> 401 51<176 220>
VStem: 24 65 64 135<-97.5 -91.5> 115 122<89.5 111 89.5 129> 189 119<352.5 394>
LayerCount: 2
Fore
SplineSet
280 -7 m 0xe8
 185 -7 115 29 115 122 c 0xe4
 115 136 116 151 118 161 c 0
 124 197 137 234 174 332 c 0
 184 356 186 365 188 379 c 0
 189 384 189 387 189 390 c 0
 189 398 186 401 176 401 c 0
 134 397 103 346 89 304 c 0
 83 283 83 282 61 282 c 2
 55 282 l 2
 36 282 34 282 31 284 c 0
 27 286 24 291 24 296 c 0
 24 304 36 337 46 354 c 0
 76 408 119 442 167 450 c 0
 173 451 181 452 188 452 c 0
 252 452 308 416 308 361 c 0xf2
 308 344 305 338 293 306 c 0
 255 209 242 165 238 122 c 0
 238 118 237 113 237 109 c 0xe4
 237 70 251 43 291 43 c 0
 312 43 336 51 356 66 c 0
 366 74 385 94 388 98 c 0
 388 100 462 394 463 396 c 0
 474 421 499 444 534 444 c 0
 561 444 587 427 587 399 c 0
 587 379 486 -17 483 -25 c 0
 453 -104 379 -163 296 -188 c 0
 265 -197 244 -202 204 -202 c 0
 139 -202 92 -183 73 -150 c 0
 67 -139 64 -127 64 -114 c 0
 64 -69 97 -31 144 -31 c 0
 176 -31 199 -52 199 -83 c 0
 199 -112 183 -130 168 -147 c 1
 176 -149 194 -150 206 -150 c 0
 217 -150 228 -150 234 -148 c 0
 294 -134 338 -74 359 -15 c 0
 361 -8 367 13 367 14 c 2
 367 14 339 -7 280 -7 c 0xe8
EndSplineSet
EndChar

StartChar: z
Encoding: 122 122 54
Width: 555
GlyphClass: 2
Flags: MW
HStem: -7 125 52 51<165.5 195> 326 126
VStem: 469 59
LayerCount: 2
Fore
SplineSet
508 452 m 2x70
 528 452 539 452 539 438 c 0
 539 429 523 410 511 395 c 0
 496 375 481 358 458 334 c 0
 421 298 394 275 312 210 c 0
 247 160 218 136 191 111 c 2
 183 103 l 1
 195 103 l 2x70
 213 104 236 107 268 110 c 0
 315 116 326 117 363 118 c 0
 408 119 422 121 439 127 c 0
 456 133 463 140 469 157 c 0
 470 159 472 161 474 163 c 0
 477 165 478 166 495 166 c 0
 518 166 521 166 525 161 c 0
 530 157 531 153 528 141 c 0
 510 79 455 23 391 2 c 0
 370 -5 358 -7 337 -7 c 0xb0
 321 -7 318 -7 309 -5 c 0
 289 0 280 5 251 23 c 0
 220 42 205 48 189 51 c 0
 185 52 181 52 177 52 c 0
 154 52 140 43 126 33 c 0
 117 27 104 13 97 3 c 0
 90 -7 91 -8 80 -8 c 2
 66 -8 l 2
 44 -8 41 -7 37 -2 c 0
 35 1 34 2 34 5 c 0
 34 9 37 15 45 26 c 0
 64 55 84 78 115 110 c 0
 152 146 179 169 262 234 c 0
 325 283 355 308 381 332 c 2
 389 339 l 1
 381 339 l 1
 332 329 275 327 234 326 c 0
 186 325 177 324 172 321 c 0
 169 319 168 318 151 318 c 0
 128 318 125 318 121 322 c 0
 116 327 115 331 118 342 c 0
 124 362 138 385 154 402 c 0
 181 428 212 444 249 451 c 0
 253 452 259 452 265 452 c 0
 276 452 288 451 296 449 c 0
 314 444 326 438 358 418 c 0
 390 399 408 392 426 392 c 0
 433 392 438 394 444 400 c 0
 450 405 463 422 474 438 c 0
 481 451 483 452 493 452 c 2
 508 452 l 2x70
EndSplineSet
EndChar

StartChar: Gamma
Encoding: 915 915 56
Width: 657
GlyphClass: 2
Flags: MW
HStem: 0 62<57.5 162 388.5 402> 618 62<236.5 278 456 456 456 516>
VStem: 693 58 697 80
LayerCount: 2
Fore
SplineSet
163 66 m 2xd0
 163 67 300 615 301 616 c 0
 301 618 299 618 257 618 c 0
 216 618 212 618 209 620 c 0
 202 623 198 629 198 636 c 0
 198 642 205 669 208 673 c 0
 211 676 215 678 219 680 c 2
 763 680 l 2
 769 678 777 673 777 664 c 0xd0
 777 662 755 441 751 433 c 0
 746 425 743 424 723 424 c 0
 703 424 699 425 695 432 c 0
 691 438 691 440 693 458 c 0xe0
 695 481 697 498 697 513 c 0
 697 584 672 611 591 617 c 0
 583 618 549 618 516 618 c 2
 456 618 l 1
 455 614 l 2
 455 613 318 65 317 64 c 0
 317 62 320 62 375 62 c 0
 429 62 433 62 437 60 c 0
 443 57 447 51 447 44 c 0
 447 38 440 11 437 7 c 0
 434 1 429 0 416 0 c 0
 361 0 310 2 231 2 c 0
 154 2 112 0 65 0 c 0
 50 0 47 4 43 15 c 0
 43 17 44 23 47 35 c 0
 52 54 53 57 60 60 c 0
 64 62 68 62 113 62 c 2
 162 62 l 1
 163 66 l 2xd0
EndSplineSet
EndChar

StartChar: Delta
Encoding: 916 916 57
Width: 958
GlyphClass: 2
Flags: MW
HStem: 0 133<462 479> 691 20G<649.5 670>
LayerCount: 2
Fore
SplineSet
65 0 m 2
 63 2 59 5 59 9 c 0
 59 11 60 14 61 16 c 0
 64 21 603 694 608 698 c 0
 613 703 623 708 629 710 c 0
 631 710 643 711 656 711 c 0
 684 711 687 710 694 703 c 0
 697 700 699 696 700 693 c 0
 709 666 904 16 904 14 c 0
 904 9 899 4 894 1 c 2
 479 0 l 1
 65 0 l 2
630 342 m 2
 567 551 l 1
 232 134 l 1
 462 133 l 1
 693 133 l 2
 693 134 665 228 630 342 c 2
EndSplineSet
EndChar

StartChar: Theta
Encoding: 920 920 58
Width: 867
GlyphClass: 2
Flags: MW
HStem: -17 53<317.5 376.5> 277 134<362 466 362 537 329 466> 652 50<504 527 527 538 504 584>
VStem: 54 144<156.5 227 154.5 250.5> 263 63<255.5 266> 534 59 573 63<422 432.5> 700 144<456 457.5 369 529.5>
LayerCount: 2
Fore
SplineSet
358 -17 m 0xf9
 175 -17 54 70 54 243 c 0
 54 258 54 273 55 282 c 0
 70 398 128 509 214 585 c 0
 292 654 392 694 504 702 c 1
 527 702 l 2
 549 702 578 702 590 701 c 0
 715 687 799 629 830 534 c 0
 839 505 844 474 844 441 c 0
 844 297 767 167 682 96 c 0
 621 45 550 11 471 -5 c 0
 434 -13 395 -17 358 -17 c 0xf9
700 474 m 0
 700 585 640 652 528 652 c 0
 478 652 444 642 405 622 c 0
 364 602 331 574 301 534 c 0
 263 485 237 422 215 332 c 0
 203 283 198 244 198 210 c 0
 198 99 263 36 372 36 c 0
 424 36 480 52 528 84 c 0
 609 140 649 215 681 344 c 0
 694 396 700 438 700 474 c 0
534 260 m 0xfd
 534 265 536 272 537 277 c 1
 329 277 l 1
 326 266 l 2
 321 245 319 243 295 243 c 0
 286 243 279 243 276 244 c 0
 270 246 263 252 263 259 c 0
 263 268 306 435 306 435 c 2
 310 444 317 445 334 445 c 0
 352 445 366 441 366 428 c 0
 366 423 363 416 362 411 c 1
 466 411 l 1
 570 412 l 1
 573 422 l 2
 578 443 580 445 604 445 c 0
 613 445 620 445 623 444 c 0
 629 442 636 436 636 429 c 0xfb
 636 420 595 257 593 253 c 0
 587 244 585 243 566 243 c 0
 546 243 534 247 534 260 c 0xfd
EndSplineSet
EndChar

StartChar: Lambda
Encoding: 923 923 59
Width: 806
GlyphClass: 2
Flags: MW
HStem: 0 62<271 280 725.5 742> 691 20G<566 592.5>
VStem: 525 165<63 64.5 62.5 67>
LayerCount: 2
Fore
SplineSet
274 0 m 0
 239 0 206 2 159 2 c 0
 125 2 92 2 79 1 c 0
 60 0 59 0 54 2 c 0
 50 4 46 9 44 15 c 0
 44 17 45 23 48 35 c 0
 55 61 55 62 89 62 c 0
 111 63 130 65 142 68 c 0
 146 69 148 70 151 73 c 0
 157 79 534 697 538 699 c 0
 550 711 552 711 580 711 c 0
 605 711 613 711 618 695 c 0
 619 691 690 66 690 63 c 0
 690 62 706 62 726 62 c 0
 758 62 762 62 766 60 c 0
 772 57 776 51 776 44 c 0
 776 38 769 11 766 7 c 0
 763 2 757 0 747 0 c 0
 704 0 666 2 600 2 c 0
 552 2 502 2 476 1 c 2
 439 0 l 2
 434 2 431 4 427 8 c 0
 423 14 423 17 427 34 c 0
 432 51 433 53 436 57 c 0
 442 62 443 62 485 62 c 2
 509 62 l 2
 519 62 525 62 525 64 c 0
 525 70 478 483 478 483 c 2
 478 484 438 420 350 277 c 0
 280 163 222 69 222 68 c 2
 222 68 223 67 224 67 c 0
 228 65 253 63 271 62 c 0
 294 62 297 61 302 54 c 0
 306 48 306 45 302 28 c 0
 297 11 296 8 292 5 c 0
 288 2 286 0 274 0 c 0
EndSplineSet
EndChar

StartChar: Xi
Encoding: 926 926 60
Width: 841
GlyphClass: 2
Flags: MW
HStem: 0 123<249 491.5 390 491.5 390 699> 290 123<295 647> 549 126
VStem: 81 78 228 66<270 286> 270 56 704 64
LayerCount: 2
Fore
SplineSet
771 481 m 0xf2
 771 496 779 533 779 541 c 2
 779 549 l 1
 774 549 l 2
 755 552 701 552 505 552 c 0
 300 551 281 551 267 548 c 0
 264 548 263 546 260 541 c 0
 255 533 248 517 241 494 c 0
 234 470 237 466 206 466 c 0
 189 466 185 467 181 471 c 0
 178 473 175 480 175 484 c 0
 175 488 227 661 230 666 c 0
 233 670 236 673 241 675 c 2
 547 675 l 2
 842 675 853 675 857 673 c 0
 863 670 867 665 867 657 c 0
 867 654 834 484 832 478 c 0
 826 467 823 466 802 466 c 0
 787 466 785 466 781 468 c 0
 776 471 772 475 771 481 c 0xf2
298 448 m 0
 322 448 329 443 329 431 c 0
 329 426 328 421 326 414 c 0xf6
 326 413 398 413 486 413 c 2
 647 413 l 1
 650 424 l 2
 653 438 655 443 661 446 c 0
 664 448 666 448 683 448 c 0
 709 448 707 447 714 432 c 1
 694 348 l 2
 674 270 672 264 670 261 c 0
 665 256 662 255 643 255 c 0
 624 255 621 256 617 261 c 0
 612 266 610 283 616 289 c 0
 616 290 584 290 456 290 c 2
 295 290 l 1
 294 286 l 2
 294 276 286 260 281 257 c 0
 278 255 276 255 259 255 c 0
 243 255 241 255 238 257 c 0
 233 260 229 265 228 270 c 0xfa
 228 278 268 435 270 439 c 0xf6
 276 448 276 448 298 448 c 0
108 218 m 0
 112 220 114 220 129 220 c 0
 149 220 153 219 157 212 c 0
 161 205 161 203 159 192 c 0
 154 166 150 141 150 131 c 0
 150 129 151 128 151 127 c 0
 155 124 176 124 390 123 c 0
 593 123 640 123 664 126 c 0
 668 127 673 127 675 127 c 0
 680 129 694 161 704 198 c 0
 708 211 711 215 716 218 c 0
 720 220 722 220 738 220 c 0
 753 220 755 220 759 218 c 0
 764 215 768 209 768 203 c 0
 768 197 714 14 710 8 c 0
 708 5 704 2 699 0 c 2
 388 0 l 2
 110 0 77 0 73 2 c 0
 66 5 62 10 62 18 c 0
 62 20 70 64 81 115 c 0
 101 216 100 214 108 218 c 0
EndSplineSet
EndChar

StartChar: Pi
Encoding: 928 928 61
Width: 982
GlyphClass: 2
Flags: MW
HStem: 0 62<57.5 162> 618 62<236.5 278 456 456 456 604 907 907 907 956>
LayerCount: 2
Fore
SplineSet
163 66 m 2
 163 67 300 615 301 616 c 0
 301 618 299 618 257 618 c 0
 216 618 212 618 209 620 c 0
 202 623 198 629 198 636 c 0
 198 642 205 669 208 673 c 0
 211 676 215 678 219 680 c 2
 1011 680 l 2
 1019 677 1023 674 1026 665 c 0
 1026 663 1025 657 1022 645 c 0
 1017 626 1016 623 1009 620 c 0
 1005 618 1001 618 956 618 c 2
 907 618 l 1
 906 614 l 2
 906 613 769 65 768 64 c 0
 768 62 770 62 812 62 c 0
 853 62 857 62 861 60 c 0
 867 57 871 51 871 44 c 0
 871 38 864 11 861 7 c 0
 859 5 854 2 850 0 c 2
 808 1 l 2
 782 2 728 2 675 2 c 0
 604 2 562 0 516 0 c 0
 501 0 498 4 494 15 c 0
 494 17 495 23 498 35 c 0
 503 54 504 57 511 60 c 0
 515 62 519 62 564 62 c 2
 613 62 l 1
 614 66 l 2
 614 67 751 615 752 616 c 0
 752 618 745 618 604 618 c 2
 456 618 l 1
 455 614 l 2
 455 613 318 65 317 64 c 0
 317 62 319 62 361 62 c 0
 402 62 406 62 410 60 c 0
 416 57 420 51 420 44 c 0
 420 38 413 11 410 7 c 0
 408 5 403 2 399 0 c 2
 357 1 l 2
 331 2 277 2 224 2 c 0
 153 2 111 0 65 0 c 0
 50 0 47 4 43 15 c 0
 43 17 44 23 47 35 c 0
 52 54 53 57 60 60 c 0
 64 62 68 62 113 62 c 2
 162 62 l 1
 163 66 l 2
EndSplineSet
EndChar

StartChar: Sigma
Encoding: 931 931 62
Width: 885
GlyphClass: 2
Flags: MW
HStem: 0 81<250 405> 624 62<430 528 430 430>
VStem: 817 85
LayerCount: 2
Fore
SplineSet
817 449 m 0
 817 461 818 476 818 487 c 0
 818 516 814 541 806 559 c 0
 787 604 750 619 652 623 c 0
 636 624 586 624 528 624 c 2
 430 624 l 1
 513 487 l 2
 585 367 595 349 596 345 c 0
 596 339 595 334 590 330 c 0
 588 328 511 271 418 204 c 2
 250 81 l 1
 363 80 l 2
 502 80 535 81 575 87 c 0
 630 95 661 110 694 142 c 0
 723 170 747 206 765 252 c 0
 774 273 775 274 799 274 c 0
 813 274 816 274 820 272 c 0
 826 269 831 261 830 254 c 0
 829 250 739 12 736 7 c 0
 733 4 729 2 725 0 c 2
 405 0 l 2
 117 0 84 0 80 2 c 0
 73 5 69 10 69 18 c 0
 69 24 71 28 75 32 c 0
 77 33 158 93 255 164 c 2
 432 293 l 1
 425 308 225 627 225 638 c 0
 225 644 231 675 234 678 c 0
 238 682 241 684 245 686 c 2
 888 686 l 2
 895 683 901 679 902 671 c 0
 902 667 878 446 876 441 c 0
 872 432 868 430 847 430 c 0
 823 430 817 432 817 449 c 0
EndSplineSet
EndChar

StartChar: Upsilon
Encoding: 933 933 63
Width: 671
GlyphClass: 2
Flags: MW
HStem: 1 61<127 216 431 431> 581 122<173 235.5 644.5 680.5>
VStem: 729 62<539 539> 729 73<539 593.5 549 593.5>
LayerCount: 2
Fore
SplineSet
210 702 m 0xd0
 216 703 222 703 229 703 c 0
 242 703 256 702 269 699 c 0
 327 686 368 643 386 573 c 0
 393 548 397 517 397 491 c 2
 397 478 l 1
 404 491 l 2
 428 537 454 574 485 608 c 0
 541 669 610 703 677 703 c 0
 732 703 771 676 790 639 c 0
 798 623 802 603 802 584 c 0xd0
 802 565 797 545 791 539 c 0
 784 531 782 531 757 531 c 2
 736 532 l 1
 732 535 l 1
 729 539 l 1xe0
 729 549 l 2
 730 558 730 559 728 563 c 0
 723 576 703 581 658 581 c 0
 631 581 624 580 609 576 c 0
 559 561 512 514 477 443 c 0
 463 414 449 377 443 351 c 0
 439 336 372 66 371 64 c 0
 371 62 374 62 428 62 c 0
 490 62 490 62 495 57 c 0
 498 55 501 48 501 44 c 0
 501 39 494 13 492 9 c 0
 489 4 486 2 480 0 c 2
 431 1 l 2
 401 2 339 2 278 2 c 0
 217 2 155 2 127 1 c 2
 85 0 l 1
 76 4 71 8 71 17 c 0
 71 21 72 26 74 33 c 0
 79 54 80 57 88 60 c 0
 91 62 100 62 154 62 c 2
 216 62 l 1
 219 75 288 348 291 360 c 0
 297 390 300 420 300 452 c 0
 299 476 297 490 293 507 c 0
 279 556 247 581 198 581 c 0
 148 581 109 580 100 548 c 0
 98 542 91 535 86 533 c 0
 82 531 78 531 60 531 c 2
 39 532 l 2
 35 535 32 538 32 544 c 0
 32 548 33 554 36 562 c 0
 60 634 134 693 210 702 c 0xd0
EndSplineSet
EndChar

StartChar: Phi
Encoding: 934 934 64
Width: 767
GlyphClass: 2
Flags: MW
HStem: 0 62<110 241> 168 51<260.5 277.5> 467 51<336 350.5> 624 62<283.5 342>
VStem: 29 152<308.5 309.5 274 331.5> 266 120<65 167.5> 583 154<363 393.5>
LayerCount: 2
Fore
SplineSet
241 62 m 1
 248 89 266 162 266 167 c 0
 266 168 264 168 262 168 c 0
 259 168 251 169 244 170 c 0
 132 182 56 223 35 280 c 0
 30 293 29 301 29 316 c 0
 29 347 42 378 68 408 c 0
 118 464 211 503 327 516 c 0
 336 517 347 518 349 518 c 0
 352 518 354 519 355 519 c 0
 356 520 381 621 381 623 c 0
 381 624 361 624 323 624 c 0
 267 624 266 624 261 626 c 0
 256 628 253 633 251 639 c 0
 251 641 252 647 255 659 c 0
 260 678 261 681 268 684 c 0
 272 686 274 686 293 686 c 0
 348 684 412 684 475 684 c 0
 538 684 593 686 647 686 c 0
 662 686 671 681 671 668 c 0
 671 662 664 635 661 631 c 0
 660 630 657 627 655 626 c 0
 650 624 649 624 588 624 c 2
 525 624 l 1
 500 520 l 2
 500 515 572 521 656 480 c 0
 702 457 729 425 736 388 c 0
 737 383 737 377 737 372 c 0
 737 354 732 335 723 316 c 0
 709 286 684 260 648 237 c 0
 595 202 511 176 426 169 c 2
 412 168 l 1
 399 118 l 2
 392 90 386 66 386 65 c 2
 385 62 l 1
 443 62 l 2
 497 62 501 62 505 60 c 0
 511 57 515 51 515 44 c 0
 515 38 508 11 505 7 c 0
 502 4 498 2 494 0 c 2
 447 1 l 2
 417 2 358 2 298 2 c 0
 217 2 170 0 118 0 c 0
 102 0 99 4 95 15 c 0
 95 17 96 23 99 35 c 0
 104 54 105 57 112 60 c 0
 116 62 121 62 179 62 c 2
 241 62 l 1
342 466 m 2
 342 466 341 467 339 467 c 0
 333 467 316 464 302 460 c 0
 270 452 241 437 225 420 c 0
 219 412 209 398 204 388 c 0
 190 360 181 323 181 296 c 0
 181 252 209 236 245 225 c 0
 255 223 271 219 277 219 c 0
 278 219 280 220 280 220 c 2
 281 220 342 464 342 466 c 2
507 464 m 0
 502 465 495 466 492 467 c 2
 486 467 l 1
 455 343 l 2
 432 252 425 219 426 219 c 2
 426 219 432 220 437 221 c 0
 523 232 565 276 581 359 c 0
 583 367 583 379 583 389 c 0
 583 398 583 406 582 410 c 0
 571 442 543 456 507 464 c 0
EndSplineSet
EndChar

StartChar: Psi
Encoding: 936 936 65
Width: 714
GlyphClass: 2
Flags: MW
HStem: 1 61<131 221 427 427> 489 49 624 62<264.5 319 599.5 631>
VStem: 46 140<331.5 344 302 368.5> 59 146<461.5 464> 247 118<62.5 168>
LayerCount: 2
Fore
SplineSet
59 454 m 0xec
 59 474 56 489 40 489 c 0
 30 489 22 497 22 507 c 0
 22 517 27 536 37 538 c 0
 40 540 69 540 99 540 c 0
 129 540 159 540 164 538 c 0
 192 532 205 508 205 471 c 0xec
 205 452 204 438 198 416 c 0
 190 380 186 355 186 333 c 0
 186 271 212 241 262 224 c 1
 361 623 l 2
 361 624 335 624 303 624 c 0
 246 624 246 624 241 626 c 0
 234 629 231 633 231 640 c 0
 231 644 233 650 235 657 c 0
 240 678 241 681 249 684 c 0
 252 686 256 686 273 686 c 0
 329 684 394 684 457 684 c 0
 519 684 573 686 626 686 c 0
 640 686 642 684 645 681 c 0
 648 679 651 672 651 668 c 0
 651 663 644 637 642 633 c 0
 639 629 636 626 631 624 c 2
 505 624 l 1
 407 227 l 2
 409 227 426 234 434 237 c 0
 479 257 515 294 539 345 c 0
 550 367 556 386 567 425 c 0
 573 447 579 463 588 480 c 0
 605 514 623 531 649 538 c 0
 657 540 661 540 717 540 c 0
 775 540 776 540 781 538 c 0
 785 536 790 530 790 524 c 0
 790 518 786 502 784 497 c 0
 781 492 776 490 767 489 c 0
 757 488 751 485 742 477 c 0
 722 457 711 424 701 389 c 0
 663 263 553 183 404 169 c 2
 391 168 l 1
 379 116 l 2
 371 88 365 64 365 63 c 0
 365 62 377 62 422 62 c 0
 484 62 484 62 489 57 c 0
 492 55 495 48 495 44 c 0
 495 39 488 13 486 9 c 0
 483 4 480 2 474 0 c 2
 427 1 l 2
 397 2 338 2 278 2 c 0
 218 2 159 2 131 1 c 2
 90 0 l 1
 81 4 76 8 76 17 c 0
 76 21 77 26 79 33 c 0
 84 54 85 57 93 60 c 0
 96 62 105 62 159 62 c 2
 221 62 l 1
 227 88 247 166 247 168 c 1
 246 168 243 169 239 169 c 0
 228 171 209 174 194 178 c 0
 140 191 96 218 74 252 c 0
 54 280 46 312 46 351 c 0xf4
 46 386 59 424 59 454 c 0xec
EndSplineSet
EndChar

StartChar: Omega
Encoding: 937 937 66
Width: 879
GlyphClass: 2
Flags: MW
HStem: 0 115<217.5 245 217.5 258 641.5 670> 652 51<543.5 624.5>
VStem: 100 61<152.5 199> 173 154<391 406 406 430 315.5 434> 273 63<116 117> 729 157<483 576.5>
LayerCount: 2
Fore
SplineSet
162 119 m 1xec
 183 115 200 115 235 115 c 0
 255 115 273 116 273 116 c 2xec
 273 118 266 142 262 153 c 0
 255 171 247 189 226 232 c 0
 196 293 187 313 180 345 c 0
 174 365 173 374 173 391 c 2
 173 406 l 2
 173 462 189 501 214 540 c 0
 239 577 275 612 315 635 c 0
 328 644 355 657 371 664 c 0
 433 690 502 703 585 703 c 0
 688 703 763 683 819 641 c 0
 862 608 886 558 886 503 c 0
 886 463 876 431 860 401 c 0
 848 376 838 360 821 337 c 0
 799 308 782 289 725 232 c 0
 677 183 660 165 643 146 c 0
 633 134 619 117 619 116 c 0
 619 115 633 115 650 115 c 0
 690 115 710 116 722 120 c 0
 736 125 764 203 775 210 c 0
 779 212 780 212 796 212 c 0
 817 212 820 211 825 203 c 0
 826 201 828 199 828 196 c 0
 828 185 743 7 743 7 c 2
 742 6 739 3 737 2 c 0
 732 0 731 0 632 0 c 0
 524 0 528 0 522 5 c 0
 519 8 517 12 517 17 c 0
 517 22 519 28 521 37 c 0
 536 89 560 142 614 236 c 0
 668 331 721 419 728 518 c 0
 729 524 729 529 729 535 c 0
 729 618 666 652 583 652 c 0
 407 652 327 520 327 340 c 0xf4
 327 291 336 184 336 135 c 0
 336 91 332 59 324 24 c 0
 321 10 319 5 313 2 c 0
 308 0 308 0 208 0 c 0
 100 0 104 0 98 5 c 0
 94 9 93 12 93 25 c 0
 93 32 95 74 96 118 c 2
 100 199 l 1
 106 210 107 212 131 212 c 0
 154 212 155 210 161 199 c 1
 161 160 l 2
 161 145 161 131 162 125 c 2
 162 119 l 1xec
EndSplineSet
EndChar

StartChar: alpha
Encoding: 945 945 67
Width: 761
GlyphClass: 2
Flags: MW
HStem: -8 51<231.5 297.5> 401 51<332.5 367>
VStem: 39 131<106.5 137.5 96.5 186.5>
LayerCount: 2
Fore
SplineSet
251 -8 m 0
 131 -8 39 47 39 166 c 0
 39 207 53 256 74 295 c 0
 127 386 221 452 362 452 c 0
 472 452 544 400 575 321 c 0
 581 304 586 280 586 269 c 2
 586 265 l 1
 591 270 609 308 616 325 c 0
 623 341 632 368 636 381 c 0
 641 402 641 402 669 402 c 0
 688 402 690 402 693 400 c 0
 697 398 700 393 700 388 c 0
 700 385 695 366 689 348 c 0
 671 294 642 238 604 188 c 2
 593 173 l 1
 595 153 l 2
 599 90 604 66 612 43 c 1
 618 43 l 2
 634 45 648 53 651 61 c 0
 653 72 660 73 672 73 c 2
 684 73 l 2
 702 73 712 72 712 59 c 0
 712 57 712 54 711 51 c 0
 700 16 659 -7 603 -7 c 0
 593 -7 584 -7 578 -6 c 0
 536 3 505 26 485 63 c 2
 481 69 l 1
 469 61 l 2
 403 18 344 -8 251 -8 c 0
412 379 m 0
 398 393 380 401 354 401 c 0
 311 401 269 379 245 355 c 0
 234 342 226 330 217 313 c 0
 206 289 199 268 187 220 c 0
 174 169 170 149 170 126 c 0
 170 67 203 43 260 43 c 0
 340 43 403 77 455 114 c 0
 463 120 465 122 465 124 c 0
 465 143 453 276 453 277 c 0
 446 325 432 359 412 379 c 0
EndSplineSet
EndChar

StartChar: beta
Encoding: 946 946 68
Width: 660
GlyphClass: 2
Flags: MW
HStem: -194 21G<50.5 59 59 71> -8 52<273 306.5> 333 51<369 385 369 393> 393 51<384 393.5> 651 50<450 461 461 484.5>
VStem: 28 60 491 117<184 306> 531 106<573 610.5 552.5 612.5>
LayerCount: 2
Fore
SplineSet
461 701 m 2xfe
 564 701 637 660 637 561 c 0xfd
 637 544 636 534 632 521 c 0
 621 470 594 426 556 393 c 1
 563 389 572 378 579 367 c 0
 599 337 608 302 608 262 c 0
 608 106 486 10 339 -6 c 0
 330 -7 314 -8 299 -8 c 0
 247 -8 217 4 186 23 c 0
 171 34 159 47 150 56 c 1
 120 -64 l 2
 103 -130 89 -185 88 -187 c 0
 82 -193 83 -194 71 -194 c 2
 59 -194 l 2
 42 -194 39 -194 36 -192 c 0
 32 -190 29 -186 28 -182 c 0
 28 -177 185 451 192 473 c 0
 225 571 302 655 388 687 c 0
 406 694 431 701 450 701 c 2
 461 701 l 2xfe
531 592 m 0
 531 633 506 651 463 651 c 0
 410 651 371 628 333 593 c 0
 297 558 271 516 253 466 c 0
 250 456 185 200 182 185 c 0
 180 176 180 168 180 159 c 0
 180 87 229 44 301 44 c 0
 354 44 392 59 420 86 c 0
 446 112 458 140 475 206 c 0
 487 253 490 271 491 296 c 0xfe
 491 316 490 328 485 341 c 0
 483 346 482 350 482 350 c 2
 481 350 478 349 474 347 c 0
 444 337 414 333 372 333 c 0
 320 333 265 336 265 380 c 0
 265 406 284 426 305 433 c 0
 324 440 357 444 397 444 c 0
 430 444 451 441 475 436 c 0
 480 434 485 433 485 433 c 2
 486 433 495 448 499 458 c 0
 512 488 531 554 531 592 c 0
424 390 m 0
 424 393 398 393 389 393 c 0
 379 393 368 392 362 392 c 0
 351 392 339 390 333 388 c 1
 341 385 359 384 379 384 c 0
 391 384 424 386 424 390 c 0
EndSplineSet
EndChar

StartChar: gamma
Encoding: 947 947 69
Width: 590
GlyphClass: 2
Flags: MW
HStem: 327 124<215 241 241 243>
VStem: 5 60 393 51
LayerCount: 2
Fore
SplineSet
36 256 m 1
 24 256 l 2
 11 256 5 257 5 269 c 0
 5 273 6 280 9 288 c 0
 35 371 125 440 215 451 c 1
 241 451 l 2
 256 451 262 451 272 449 c 0
 322 438 361 408 393 354 c 0
 413 322 431 276 440 238 c 0
 442 230 444 222 444 220 c 2
 446 216 l 1
 450 226 l 2
 480 295 552 435 561 441 c 0
 564 443 566 444 584 444 c 2
 591 444 l 2
 608 444 617 443 617 430 c 0
 617 426 616 423 608 409 c 0
 553 313 500 204 462 110 c 2
 452 84 l 1
 451 70 l 2
 447 16 437 -36 419 -107 c 0
 407 -155 400 -175 388 -192 c 0
 379 -205 367 -211 355 -211 c 0
 336 -211 325 -193 325 -171 c 0
 325 -156 329 -135 339 -94 c 0
 353 -39 368 13 386 64 c 2
 393 84 l 1
 393 98 l 2
 393 148 385 203 371 241 c 0
 367 255 361 265 353 275 c 0
 326 309 276 327 210 327 c 0
 156 327 110 318 83 295 c 0
 75 287 71 281 65 266 c 0
 62 257 59 256 45 256 c 2
 36 256 l 1
EndSplineSet
EndChar

StartChar: delta
Encoding: 948 948 70
Width: 522
GlyphClass: 2
Flags: MW
HStem: -8 51<224.5 265 224.5 266> 663 62<303.5 329>
VStem: 39 118<101.5 176 101.5 176> 348 130<202 354.5>
LayerCount: 2
Fore
SplineSet
249 -8 m 0
 128 -8 39 51 39 168 c 2
 39 176 l 1
 45 258 92 342 153 386 c 0
 190 414 231 432 272 442 c 1
 260 465 l 2
 230 525 216 573 216 610 c 0
 216 653 237 681 263 701 c 0
 277 712 293 718 314 723 c 0
 320 724 326 725 327 725 c 0
 331 725 481 692 487 690 c 0
 504 684 513 668 513 651 c 0
 513 615 478 587 450 587 c 0
 430 587 415 598 398 612 c 0
 391 619 364 643 357 650 c 0
 344 658 328 663 314 663 c 0
 293 663 280 653 272 639 c 0
 270 634 271 629 276 618 c 0
 285 599 304 576 344 536 c 2
 397 484 l 2
 448 439 478 396 478 313 c 0
 478 270 465 206 453 172 c 0
 431 106 388 48 338 18 c 0
 310 0 283 -8 249 -8 c 0
157 130 m 0
 157 73 194 43 255 43 c 0
 275 43 286 50 300 67 c 0
 323 97 348 169 348 235 c 0
 348 299 326 346 301 389 c 0
 300 391 299 392 298 392 c 0
 297 392 282 386 274 382 c 0
 260 375 248 366 236 354 c 0
 213 331 199 308 185 267 c 0
 174 228 157 172 157 130 c 0
EndSplineSet
EndChar

StartChar: epsilon
Encoding: 949 949 71
Width: 529
GlyphClass: 2
Flags: MW
HStem: -17 91<209 270> 182 50<241 248> 240 51<247 253 253 269> 370 91<288 334.5>
VStem: 36 64<125.5 138> 79 62<289.5 296> 286 63<238 239>
LayerCount: 2
Fore
SplineSet
417 124 m 0xfa
 427 124 439 115 439 100 c 0
 439 92 435 84 426 70 c 0
 389 16 316 -17 224 -17 c 0
 125 -17 54 15 37 95 c 0
 36 100 36 106 36 112 c 0xfa
 36 164 57 199 84 226 c 2
 93 236 l 1
 88 246 l 2
 80 262 79 269 79 289 c 0
 79 303 79 306 81 315 c 0
 88 342 103 366 124 388 c 0
 172 433 243 461 333 461 c 0
 385 461 418 450 455 425 c 0
 475 412 480 405 481 390 c 0
 481 360 453 334 428 334 c 0
 417 334 411 336 398 345 c 0
 369 364 356 370 313 370 c 0
 240 370 173 357 148 320 c 0
 143 313 141 303 141 293 c 0xf6
 141 286 143 273 146 270 c 0
 146 269 149 270 155 272 c 0
 187 285 221 291 263 291 c 0
 308 291 349 286 349 244 c 0
 349 232 347 225 340 215 c 0
 330 199 311 189 281 183 c 0
 274 182 257 182 239 182 c 0
 221 182 204 182 196 183 c 0
 171 188 155 193 137 200 c 1
 118 184 100 159 100 129 c 0
 100 122 101 116 104 111 c 0
 119 77 175 74 243 74 c 0
 313 74 373 75 398 112 c 0
 403 120 410 124 417 124 c 0xfa
286 238 m 0
 286 240 278 240 269 240 c 2
 253 240 l 2
 241 240 209 237 209 235 c 0
 209 233 232 232 250 232 c 0
 262 232 286 233 286 238 c 0
EndSplineSet
EndChar

StartChar: zeta
Encoding: 950 950 72
Width: 508
GlyphClass: 2
Flags: MW
HStem: -202 51<326 338 326 366.5> 507 51<406 415> 567 51<421.5 428.5> 691 20G<353.5 367.5>
VStem: 48 106<104.5 224> 317 59<586 618 612 618> 329 59 357 99<-134 -56>
LayerCount: 2
Fore
SplineSet
326 -151 m 0xf9
 350 -151 357 -145 357 -123 c 0xf9
 356 -113 353 -106 344 -97 c 0
 321 -74 203 -51 175 -37 c 0
 97 -7 48 52 48 157 c 0
 48 172 48 188 49 197 c 0
 67 327 130 422 207 499 c 0
 245 537 278 562 317 586 c 1
 317 612 l 2xfc
 319 645 322 673 329 691 c 0
 334 701 346 711 361 711 c 0
 374 711 386 702 388 689 c 0xfa
 389 684 389 682 385 666 c 0
 381 650 378 631 376 618 c 2
 376 612 l 1xfc
 379 612 l 2
 380 613 386 614 391 615 c 0
 399 617 414 618 429 618 c 0
 479 618 521 609 521 572 c 0
 521 559 515 544 506 534 c 0
 489 516 464 509 415 507 c 0
 370 507 358 514 336 536 c 1
 326 528 l 2
 260 477 199 390 172 309 c 0
 160 275 154 239 154 209 c 0
 154 142 183 105 231 85 c 0
 239 81 379 38 388 36 c 0xfa
 406 28 424 15 435 2 c 0
 443 -9 450 -24 454 -36 c 0
 456 -46 456 -48 456 -64 c 0
 456 -77 456 -83 455 -90 c 0
 442 -145 400 -202 333 -202 c 0
 290 -202 217 -183 206 -169 c 0
 203 -165 202 -161 202 -157 c 0
 202 -142 219 -131 231 -130 c 0
 238 -130 238 -130 258 -137 c 0
 277 -145 300 -149 326 -151 c 0xf9
454 564 m 2
 449 565 433 567 424 567 c 0
 413 567 403 566 397 565 c 0
 392 564 388 563 387 563 c 1
 387 558 401 558 411 558 c 0
 425 558 442 560 450 562 c 0
 453 562 454 564 454 564 c 2
EndSplineSet
EndChar

StartChar: eta
Encoding: 951 951 73
Width: 600
GlyphClass: 2
Flags: MW
HStem: 401 51<153 154>
VStem: 89 124<39 39> 357 121 477 123<344 366.5>
LayerCount: 2
Fore
SplineSet
142 -8 m 0xd0
 115 -8 89 10 89 39 c 0
 89 61 156 309 164 351 c 0
 165 357 166 365 166 372 c 0
 166 390 161 401 147 401 c 0
 112 401 100 346 90 310 c 0
 83 283 84 282 60 282 c 2
 55 282 l 2
 36 282 34 282 31 284 c 0
 27 286 24 291 24 296 c 0
 24 299 29 316 33 329 c 0
 56 397 93 441 136 450 c 0
 142 451 149 452 157 452 c 0
 182 452 213 446 233 435 c 0
 260 422 272 408 284 384 c 1
 288 387 291 389 297 395 c 0
 325 419 357 437 388 445 c 0
 410 451 416 451 445 451 c 0
 472 451 482 451 501 447 c 0
 563 434 600 400 600 337 c 0xd0
 600 324 599 309 597 298 c 0
 595 291 569 186 538 64 c 0
 487 -144 483 -159 478 -168 c 0
 467 -192 443 -211 409 -211 c 0
 379 -211 357 -191 357 -161 c 0xe0
 357 -150 372 -95 415 80 c 0
 447 206 474 314 475 320 c 0
 477 330 477 340 477 348 c 0
 477 385 466 400 432 400 c 0
 389 400 362 386 335 363 c 0
 317 347 293 320 280 298 c 0
 274 289 219 57 213 40 c 0
 202 15 177 -8 142 -8 c 0xd0
EndSplineSet
EndChar

StartChar: theta
Encoding: 952 952 74
Width: 562
GlyphClass: 2
Flags: MW
HStem: -8 51<196.5 218.5> 316 62<208 289 192 401> 651 51<377 396>
VStem: 40 121<114.5 242.5> 433 121<478 586.5>
CounterMasks: 1 e0
LayerCount: 2
Fore
SplineSet
213 -8 m 0
 101 -8 40 80 40 200 c 0
 40 285 59 359 83 428 c 0
 109 499 147 562 189 608 c 0
 239 660 301 694 360 701 c 0
 366 701 373 702 381 702 c 0
 428 702 458 689 488 664 c 0
 530 629 554 569 554 486 c 0
 554 470 553 455 552 445 c 0
 537 309 484 177 411 94 c 0
 364 40 303 4 243 -6 c 0
 235 -7 224 -8 213 -8 c 0
433 562 m 0
 433 611 415 651 377 651 c 0
 327 651 286 594 266 554 c 0
 252 526 241 496 229 453 c 0
 223 436 208 380 208 378 c 2
 401 378 l 1
 415 433 433 501 433 562 c 0
161 140 m 0
 161 89 176 43 217 43 c 0
 239 43 260 54 280 74 c 0
 321 113 346 169 378 287 c 0
 382 302 385 314 385 315 c 0
 385 316 368 316 289 316 c 2
 192 316 l 1
 191 309 l 1
 171 227 162 179 161 140 c 0
EndSplineSet
EndChar

StartChar: iota
Encoding: 953 953 75
Width: 412
GlyphClass: 2
Flags: MW
HStem: -8 51<162.5 172> 432 20G<188 217.5>
VStem: 38 119<53.5 65.5 53 91> 140 117 322 64
LayerCount: 2
Fore
SplineSet
161 -8 m 0xe8
 99 -8 38 22 38 85 c 0xe8
 38 97 41 106 56 146 c 0
 79 208 100 276 123 368 c 0
 132 403 134 407 140 417 c 0
 153 436 173 452 203 452 c 0
 232 452 257 434 257 404 c 0xd8
 257 396 255 386 251 369 c 0
 224 264 200 186 171 111 c 0
 167 102 157 74 157 57 c 0
 157 49 159 43 166 43 c 0
 239 43 304 89 322 144 c 0
 326 157 327 157 331 160 c 0
 335 162 336 162 355 162 c 0
 374 162 376 162 379 160 c 0
 383 158 386 153 386 148 c 0
 386 143 379 122 374 112 c 0
 346 60 293 20 232 3 c 0
 207 -4 183 -8 161 -8 c 0xe8
EndSplineSet
EndChar

StartChar: kappa
Encoding: 954 954 76
Width: 668
GlyphClass: 2
Flags: MW
HStem: -7 50<459.5 509 497.5 504> 372 72<437.5 536> 432 20G<187 218>
VStem: 363 123<64.5 83.5 64.5 102.5> 369 126<137.5 156> 578 64
LayerCount: 2
Fore
SplineSet
258 405 m 0xac
 258 379 230 285 230 281 c 0
 230 280 253 291 330 349 c 0
 380 389 408 408 436 422 c 0
 464 436 493 444 519 444 c 0
 553 444 574 424 574 391 c 0
 574 351 540 312 491 312 c 0
 459 312 439 334 439 364 c 0
 439 368 439 372 438 372 c 0
 437 372 419 361 407 353 c 0
 391 343 372 329 343 306 c 0
 314 283 293 270 283 260 c 1
 284 260 290 259 297 259 c 0
 389 255 495 231 495 146 c 0xcc
 495 122 486 93 486 74 c 0xd4
 486 55 490 43 505 43 c 0
 513 43 523 46 531 53 c 0
 549 65 567 100 578 141 c 0
 583 162 583 162 611 162 c 0
 630 162 632 162 635 160 c 0
 639 158 642 153 642 148 c 0
 642 144 635 121 630 108 c 0
 608 55 575 16 538 0 c 0
 526 -5 518 -7 504 -7 c 2
 495 -7 l 2xcc
 424 -7 363 29 363 96 c 0xd4
 363 109 369 133 369 142 c 0
 369 170 352 183 320 195 c 0
 297 203 273 206 221 209 c 2
 212 210 l 1
 211 206 l 2
 211 205 170 42 169 40 c 0
 158 15 133 -8 98 -8 c 0
 71 -8 45 10 45 39 c 0
 45 59 134 404 134 404 c 2
 144 429 170 452 204 452 c 0
 232 452 258 435 258 405 c 0xac
EndSplineSet
EndChar

StartChar: lambda
Encoding: 955 955 77
Width: 671
GlyphClass: 2
Flags: MW
HStem: 643 51<182.5 240.5>
LayerCount: 2
Fore
SplineSet
95 -13 m 0
 68 -13 40 8 40 41 c 0
 40 61 49 75 61 88 c 0
 66 93 356 322 357 322 c 0
 359 324 235 602 235 602 c 2
 223 625 212 641 185 643 c 0
 180 643 175 645 173 645 c 0
 165 649 161 657 161 666 c 0
 161 679 171 690 181 692 c 0
 185 693 197 694 212 694 c 0
 269 694 339 688 358 660 c 0
 365 650 624 59 633 43 c 0
 638 33 644 21 647 18 c 0
 651 12 652 10 652 6 c 0
 652 1 649 -4 645 -6 c 0
 642 -8 635 -8 589 -8 c 2
 538 -8 l 1
 526 -5 l 2
 509 0 499 5 495 14 c 0
 494 16 469 72 440 138 c 2
 387 259 l 1
 265 134 l 2
 141 5 136 1 123 -6 c 0
 114 -11 104 -13 95 -13 c 0
EndSplineSet
EndChar

StartChar: mu
Encoding: 956 956 78
Width: 708
GlyphClass: 2
Flags: MW
HStem: -8 51<281.5 323 281.5 323.5> 432 20G<227 258>
VStem: 492 123<397 397>
LayerCount: 2
Fore
SplineSet
429 46 m 1
 394 16 353 -8 294 -8 c 0
 261 -8 238 -5 213 1 c 0
 206 3 201 4 201 4 c 2
 198 4 169 -138 155 -168 c 0
 144 -192 120 -211 86 -211 c 0
 55 -211 32 -189 34 -158 c 0
 37 -142 167 384 174 404 c 0
 184 429 210 452 244 452 c 0
 272 452 298 434 298 404 c 0
 298 383 243 183 239 153 c 0
 236 138 235 126 235 114 c 0
 235 66 258 43 305 43 c 0
 341 43 366 58 391 80 c 0
 399 87 416 106 418 110 c 0
 421 113 489 391 492 397 c 0
 504 422 528 444 562 444 c 0
 589 444 615 426 615 397 c 0
 615 363 540 118 540 72 c 0
 540 54 545 43 559 43 c 0
 594 43 606 98 616 134 c 0
 623 161 622 162 646 162 c 2
 651 162 l 2
 670 162 672 162 675 160 c 0
 679 158 682 153 682 148 c 0
 682 145 677 128 673 115 c 0
 650 46 612 2 568 -6 c 0
 562 -7 555 -8 548 -8 c 0
 501 -8 451 12 433 41 c 1
 429 46 l 1
EndSplineSet
EndChar

StartChar: nu
Encoding: 957 957 79
Width: 577
GlyphClass: 2
Flags: MW
HStem: 379 69
VStem: 480 128
LayerCount: 2
Fore
SplineSet
556 452 m 0
 585 452 608 431 608 402 c 0
 608 396 607 389 605 381 c 0
 587 314 549 250 493 194 c 0
 397 98 260 29 96 -1 c 0
 91 -2 84 -2 78 -2 c 0
 65 -2 52 -1 47 2 c 0
 44 4 38 10 38 15 c 0
 38 20 52 78 82 198 c 2
 127 379 l 2
 126 380 101 382 88 382 c 0
 70 382 66 383 62 390 c 0
 57 396 57 399 62 417 c 0
 66 433 67 435 70 438 c 0
 80 448 105 445 160 448 c 0
 214 451 237 452 247 452 c 0
 259 452 267 447 267 437 c 0
 267 431 253 375 223 252 c 2
 177 71 l 1
 192 77 l 2
 254 102 308 138 356 185 c 0
 418 245 458 312 480 388 c 0
 484 404 486 408 491 417 c 0
 506 440 532 452 556 452 c 0
EndSplineSet
EndChar

StartChar: xi
Encoding: 958 958 80
Width: 508
GlyphClass: 2
Flags: MW
HStem: -201 50<313 336 313 336.5> 236 51<306 320 306 333.5> 296 50<316.5 325.5> 508 50<376 386.5 376 392> 567 51<387 395> 691 20G<327 335.5>
VStem: 23 101<82 144.5> 99 138<372 403 370.5 405.5> 287 69 349 105<-140.5 -60.5> 355 67<292 294.5>
LayerCount: 2
Fore
SplineSet
329 -151 m 0xfe40
 343 -151 349 -146 349 -135 c 0
 349 -130 345 -124 340 -121 c 0
 330 -116 147 -56 115 -41 c 0
 70 -19 39 15 28 53 c 0
 24 65 23 76 23 88 c 0xfe40
 23 100 24 111 28 125 c 0
 42 182 78 236 130 277 c 2
 144 288 l 1
 136 297 l 2
 112 322 99 354 99 390 c 0
 99 421 108 448 119 470 c 0
 148 528 211 577 285 602 c 1
 285 619 l 2
 285 629 287 642 287 648 c 0
 293 681 294 701 318 709 c 0
 322 710 325 711 329 711 c 0
 342 711 354 702 356 689 c 0xfd80
 357 684 357 682 353 666 c 0
 350 650 346 632 345 619 c 0
 344 615 344 615 346 615 c 0
 354 617 376 618 398 618 c 0
 447 618 490 610 490 572 c 0
 490 541 463 519 434 512 c 0
 417 509 406 508 378 508 c 0
 334 508 327 513 306 534 c 1
 298 525 l 2
 267 492 237 431 237 375 c 0
 237 366 238 336 244 336 c 0
 268 345 289 346 325 346 c 0
 376 346 422 342 422 300 c 0xfd20
 422 247 364 236 303 236 c 0
 243 236 198 254 196 254 c 0
 193 254 176 238 170 231 c 0
 150 211 136 187 127 162 c 0
 124 151 124 150 124 139 c 0
 124 118 129 113 140 102 c 0
 151 91 161 85 178 78 c 0
 182 76 401 0 406 -2 c 0
 434 -14 454 -41 454 -80 c 0
 454 -85 454 -90 453 -95 c 0
 443 -146 406 -187 358 -199 c 0
 349 -201 346 -201 327 -201 c 0
 282 -201 224 -187 196 -174 c 0
 190 -171 187 -165 187 -158 c 0
 187 -142 202 -130 216 -130 c 0
 221 -130 226 -131 242 -137 c 0
 265 -145 297 -151 329 -151 c 0xfe40
355 563 m 1xfc20
 362 559 361 559 376 558 c 0
 397 558 426 561 423 564 c 0
 417 565 400 567 390 567 c 0
 374 567 363 566 355 563 c 1xfc20
279 292 m 1
 288 289 297 287 315 287 c 0
 325 287 355 291 355 293 c 0
 355 296 330 296 321 296 c 0
 312 296 303 295 301 295 c 0
 300 295 295 295 289 294 c 2
 279 292 l 1
EndSplineSet
EndChar

StartChar: omicron
Encoding: 959 959 81
Width: 585
GlyphClass: 2
Flags: MW
HStem: -8 52<231.5 265.5> 400 52<354 354.5>
VStem: 39 131<109 137.5 97 205.5> 445 131<313 323.5>
LayerCount: 2
Fore
SplineSet
254 -8 m 0
 127 -8 39 49 39 169 c 0
 39 242 75 313 127 363 c 0
 171 406 225 433 292 446 c 0
 302 448 324 451 336 451 c 0
 338 451 349 452 359 452 c 0
 481 452 576 397 576 279 c 0
 576 259 573 238 567 216 c 0
 538 102 443 22 323 -2 c 0
 301 -6 277 -8 254 -8 c 0
170 126 m 0
 170 68 203 44 260 44 c 0
 344 44 385 93 409 157 c 0
 421 189 439 263 444 295 c 0
 445 301 445 309 445 317 c 0
 445 330 444 342 443 348 c 0
 434 375 412 393 382 399 c 0
 375 400 360 400 349 400 c 0
 296 400 254 371 231 338 c 0
 213 311 202 283 187 220 c 0
 174 169 170 149 170 126 c 0
EndSplineSet
EndChar

StartChar: pi
Encoding: 960 960 82
Width: 682
GlyphClass: 2
Flags: MW
HStem: 333 111<250 535.5 358.5 365 316 535.5 479 479 479 535.5 358.5 549>
VStem: 117 125 250 65<328 333> 413 63<240.5 332>
LayerCount: 2
Fore
SplineSet
457 -8 m 0
 398 -8 384 73 384 139 c 0
 384 187 388 215 396 255 c 0
 399 271 411 328 413 331 c 0
 413 333 409 333 365 333 c 2
 316 333 l 1
 315 329 l 2
 315 327 302 278 288 220 c 0
 261 117 246 56 242 43 c 0
 239 34 231 22 224 14 c 0
 209 0 191 -8 172 -8 c 0
 144 -8 117 12 117 41 c 0
 117 47 118 54 121 61 c 0
 122 65 129 79 137 93 c 0
 186 184 214 239 235 293 c 0
 240 305 250 332 250 333 c 2
 250 333 177 333 166 332 c 0
 129 329 109 322 88 301 c 2
 77 290 l 1
 55 289 l 2
 36 289 33 289 30 290 c 0
 26 293 23 298 23 303 c 0
 23 308 24 309 33 322 c 0
 88 396 144 437 199 443 c 0
 200 444 299 444 418 444 c 0
 653 444 641 444 652 439 c 0
 666 431 674 418 674 400 c 0
 674 371 654 344 625 335 c 0
 620 334 611 334 549 333 c 2
 479 333 l 1
 477 321 l 2
 476 312 476 295 476 279 c 0
 476 202 493 147 525 98 c 0
 532 87 536 76 536 65 c 0
 536 22 490 -8 457 -8 c 0
EndSplineSet
EndChar

StartChar: rho
Encoding: 961 961 83
Width: 612
GlyphClass: 2
Flags: MW
HStem: -8 51<294 332> 400 51<386 403 403 411.5 386 427.5>
VStem: 474 129<332 334.5 227 343 227 360.5>
LayerCount: 2
Fore
SplineSet
307 -8 m 0
 238 -8 205 23 205 20 c 0
 201 16 165 -150 155 -168 c 0
 144 -192 121 -211 87 -211 c 0
 57 -211 34 -191 34 -162 c 0
 34 -150 130 233 137 254 c 0
 161 319 202 374 258 408 c 0
 293 431 336 445 386 451 c 1
 403 451 l 2
 420 451 443 451 452 450 c 0
 540 437 603 384 603 285 c 0
 603 169 532 74 453 29 c 0
 412 6 357 -8 307 -8 c 0
474 343 m 2
 474 378 446 400 409 400 c 0
 358 400 322 374 299 341 c 0
 286 321 275 294 264 257 c 0
 260 244 222 91 222 89 c 0
 222 86 230 75 236 69 c 0
 253 52 280 43 308 43 c 0
 361 43 397 72 417 110 c 0
 431 135 441 164 456 228 c 0
 471 286 474 306 474 332 c 2
 474 343 l 2
EndSplineSet
EndChar

StartChar: sigma1
Encoding: 962 962 84
Width: 424
GlyphClass: 2
Flags: MW
HStem: -105 52<270 282 270 307> 400 51<312 330 330 338>
VStem: 33 102<179 272> 293 107<-36.5 45.5>
LayerCount: 2
Fore
SplineSet
282 -53 m 1
 289 -48 293 -42 293 -31 c 0
 293 -23 290 -16 283 -10 c 0
 273 1 129 65 115 76 c 0
 72 101 33 149 33 209 c 0
 33 285 85 356 143 391 c 0
 191 424 250 445 312 451 c 1
 330 451 l 2
 381 451 413 448 439 429 c 0
 450 422 457 415 457 402 c 0
 457 384 441 363 420 363 c 0
 414 363 409 366 395 375 c 0
 379 387 367 393 354 398 c 0
 347 400 346 400 330 400 c 0
 250 400 167 358 143 302 c 0
 136 286 135 279 135 265 c 0
 135 245 138 241 144 229 c 0
 149 221 164 205 174 199 c 0
 178 195 352 109 358 107 c 0
 385 89 400 63 400 28 c 0
 400 -35 343 -105 271 -105 c 0
 246 -105 207 -95 195 -86 c 0
 190 -83 188 -79 188 -71 c 0
 188 -56 200 -44 216 -44 c 0
 221 -44 226 -45 233 -47 c 0
 245 -52 255 -53 270 -53 c 2
 282 -53 l 1
EndSplineSet
EndChar

StartChar: sigma
Encoding: 963 963 85
Width: 686
GlyphClass: 2
Flags: MW
HStem: -8 51<209 264 209 267.5> 332 112<269.5 563.5>
VStem: 35 118<97 134 90 159.5> 396 122<260.5 277.5 228 303.5>
LayerCount: 2
Fore
SplineSet
226 -8 m 0
 117 -8 35 43 35 151 c 0
 35 168 37 186 43 208 c 0
 73 330 165 431 306 443 c 0
 310 443 387 444 476 444 c 0
 651 444 644 444 655 439 c 0
 669 431 677 418 677 400 c 0
 677 375 662 351 639 340 c 0
 625 333 623 333 563 333 c 0
 513 333 510 333 510 331 c 0
 512 328 516 309 517 300 c 0
 518 294 518 283 518 272 c 0
 518 184 484 120 438 74 c 0
 385 21 309 -8 226 -8 c 0
396 278 m 0
 396 329 360 332 305 332 c 0
 234 332 201 306 180 243 c 0
 168 209 153 152 153 116 c 0
 153 64 184 43 234 43 c 0
 294 43 335 78 357 123 c 0
 369 148 396 243 396 278 c 0
EndSplineSet
EndChar

StartChar: tau
Encoding: 964 964 86
Width: 521
GlyphClass: 2
Flags: MW
HStem: 333 111<206 466 353 452 353 353>
VStem: 181 125 279 74<331 332>
LayerCount: 2
Fore
SplineSet
199 443 m 0xa0
 200 444 285 444 386 444 c 0
 546 444 571 444 577 442 c 0
 596 438 610 425 610 402 c 0
 610 372 594 350 572 340 c 0
 557 333 561 333 452 333 c 2
 353 333 l 1
 353 331 l 2xa0
 350 328 312 55 306 40 c 0
 298 11 269 -13 233 -13 c 0
 202 -13 181 7 181 35 c 0xc0
 181 39 181 44 182 48 c 0
 183 53 273 318 279 331 c 0
 279 333 276 333 228 333 c 2
 206 333 l 2
 148 333 118 331 88 301 c 2
 77 290 l 1
 55 289 l 2
 36 289 33 289 30 290 c 0
 26 293 23 298 23 303 c 0
 23 308 24 309 33 322 c 0
 88 396 144 437 199 443 c 0xa0
EndSplineSet
EndChar

StartChar: upsilon
Encoding: 965 965 87
Width: 631
GlyphClass: 2
Flags: MW
HStem: -8 52<336 344 336 344> 401 51<176 199.5>
VStem: 24 65 117 124<127 129 94 136.5> 189 119<352.5 394> 526 78<265 377.5>
LayerCount: 2
Fore
SplineSet
328 -8 m 0xf4
 214 -8 136 20 118 110 c 0
 118 115 117 123 117 131 c 0xf4
 117 142 118 155 119 163 c 0
 123 193 136 233 174 332 c 0
 184 356 186 365 188 379 c 0
 189 384 189 387 189 390 c 0
 189 398 186 401 176 401 c 0
 161 400 147 393 134 381 c 0
 114 361 99 335 89 304 c 0
 83 283 83 282 61 282 c 2
 55 282 l 2
 36 282 34 282 31 284 c 0
 27 286 24 291 24 296 c 0
 24 302 34 332 42 347 c 0
 67 397 116 442 167 450 c 0
 173 451 181 452 188 452 c 0
 211 452 237 446 256 437 c 0
 290 420 308 393 308 361 c 0xec
 308 344 305 338 293 306 c 0
 263 229 249 188 243 157 c 0
 242 149 241 135 241 123 c 0
 241 65 278 44 336 44 c 2
 344 44 l 2
 382 44 410 66 434 90 c 0
 473 129 509 191 524 253 c 0
 525 258 526 263 526 267 c 0
 526 277 522 284 513 292 c 0
 506 300 497 306 481 315 c 0
 462 325 456 330 450 342 c 0
 446 349 444 358 444 367 c 0
 444 404 480 453 529 453 c 0
 542 453 556 448 568 440 c 0
 592 424 604 397 604 358 c 0
 604 338 600 314 594 286 c 0
 582 232 574 206 557 172 c 0
 522 100 470 42 414 13 c 0
 386 -2 360 -8 328 -8 c 0xf4
EndSplineSet
EndChar

StartChar: phi
Encoding: 966 966 88
Width: 747
GlyphClass: 2
Flags: MW
HStem: -8 111<332 369.5 332 369.5> 341 111<561 566 561 569>
VStem: 53 63<199.5 201.5> 183 127 637 66<250.5 334.5>
LayerCount: 2
Fore
SplineSet
184 -155 m 0
 184 -154 238 4 238 4 c 1
 238 4 233 6 229 7 c 0
 144 27 72 79 55 159 c 0
 53 168 53 173 53 190 c 0
 53 213 53 219 60 246 c 0
 80 324 106 381 145 426 c 0
 155 437 160 442 163 443 c 0
 165 444 174 444 186 444 c 0
 207 444 211 443 214 438 c 0
 218 432 216 423 210 418 c 0
 180 388 158 349 141 302 c 0
 128 268 116 233 116 206 c 0
 116 193 120 179 125 170 c 0
 144 139 191 118 263 109 c 2
 276 107 l 1
 288 139 l 2
 308 195 325 236 343 271 c 0
 402 384 466 442 545 451 c 0
 547 452 556 452 566 452 c 0
 658 447 703 383 703 286 c 0
 702 263 701 254 695 231 c 0
 668 122 555 25 422 -1 c 0
 398 -6 383 -7 357 -8 c 2
 332 -8 l 1
 332 -11 l 2
 331 -13 327 -45 322 -82 c 0
 316 -120 311 -154 310 -157 c 0
 303 -191 274 -216 234 -216 c 0
 203 -216 183 -197 183 -168 c 0
 183 -164 183 -160 184 -155 c 0
637 260 m 0
 637 311 597 341 541 341 c 0
 488 341 433 303 405 264 c 0
 381 234 363 193 356 159 c 0
 355 153 348 106 348 104 c 0
 348 103 353 103 361 103 c 0
 378 103 408 104 420 105 c 0
 509 116 593 151 624 212 c 0
 632 228 637 241 637 260 c 0
EndSplineSet
EndChar

StartChar: chi
Encoding: 967 967 89
Width: 718
GlyphClass: 2
Flags: MW
HStem: -201 50<509.5 586> -194 21G<50 66> 401 51<137 145.5>
VStem: 35 65
LayerCount: 2
Fore
SplineSet
58 -194 m 0x70
 42 -194 32 -182 32 -164 c 0
 32 -155 36 -149 46 -139 c 2
 175 -13 l 2
 242 52 296 105 296 106 c 0
 296 107 288 139 284 156 c 0
 268 219 248 271 226 308 c 0
 202 345 186 367 170 383 c 0
 157 396 150 401 141 401 c 0
 124 401 107 385 100 365 c 0
 92 345 94 347 69 346 c 2
 45 346 l 2
 41 347 35 353 35 359 c 0
 35 367 41 382 50 396 c 0
 75 433 109 452 165 452 c 0
 242 452 299 437 329 402 c 0
 345 382 369 332 384 286 c 0
 390 268 404 218 404 215 c 0
 404 214 404 213 405 213 c 1
 405 212 457 262 520 324 c 0
 583 385 637 437 640 438 c 0
 646 443 652 444 661 444 c 0
 673 443 685 434 685 419 c 0
 685 413 684 407 681 402 c 0
 679 398 653 371 549 271 c 2
 420 145 l 1
 435 75 459 -4 488 -53 c 0
 509 -86 536 -128 562 -147 c 0
 567 -150 570 -151 575 -151 c 0
 597 -151 611 -130 617 -113 c 0
 621 -103 622 -101 626 -98 c 0
 629 -96 630 -96 650 -96 c 0
 673 -96 675 -96 679 -102 c 0
 682 -107 682 -110 679 -119 c 0
 667 -157 633 -188 591 -199 c 0
 581 -201 580 -201 550 -201 c 0xb0
 469 -201 412 -188 381 -143 c 0
 355 -104 335 -52 316 20 c 2
 311 39 l 1
 230 -40 l 2
 186 -84 134 -135 114 -153 c 0
 75 -192 74 -194 58 -194 c 0x70
EndSplineSet
EndChar

StartChar: psi
Encoding: 968 968 90
Width: 758
GlyphClass: 2
Flags: MW
HStem: -8 51<393 415 393 415> 401 51<163 184> 674 20G<518 533 533 544>
VStem: 119 125<119 144.5 119 180> 190 119<367.5 372.5 355 392> 286 59 505 60 653 79<253 377.5>
LayerCount: 2
Fore
SplineSet
119 146 m 0xf7
 119 214 190 347 190 388 c 0xeb
 190 396 187 401 181 401 c 0
 145 401 108 362 90 306 c 0
 83 283 83 282 61 282 c 2
 55 282 l 2
 36 282 34 282 31 284 c 0
 27 286 24 291 24 296 c 0
 24 299 29 315 33 327 c 0
 57 388 116 452 189 452 c 0
 232 452 265 438 286 416 c 0xe7
 302 400 309 383 309 362 c 0xeb
 309 348 306 338 295 308 c 0
 265 231 249 186 246 164 c 0
 245 156 244 148 244 141 c 0
 244 97 265 69 310 54 c 0
 321 51 336 47 342 47 c 0
 343 47 344 48 344 48 c 1
 424 366 l 2
 467 540 504 684 505 686 c 0
 509 693 509 694 518 694 c 2
 533 694 l 2
 555 694 558 693 562 689 c 0
 563 687 564 684 565 683 c 0
 565 675 407 46 406 45 c 0
 406 43 406 43 415 43 c 0
 442 46 465 52 495 67 c 0
 543 91 589 133 620 183 c 0
 633 201 653 240 653 266 c 0
 653 276 649 284 641 292 c 0
 634 300 625 306 609 315 c 0
 590 325 584 330 578 342 c 0
 574 350 572 358 572 367 c 0
 572 398 593 424 613 438 c 0
 627 448 643 453 657 453 c 0
 670 453 682 449 694 441 c 0
 719 425 732 397 732 358 c 0
 732 316 717 254 706 225 c 0
 679 147 615 75 536 31 c 0
 492 7 441 -8 401 -8 c 2
 393 -8 l 1
 370 -101 l 2
 353 -167 346 -195 345 -197 c 0
 341 -201 338 -202 316 -202 c 0
 298 -202 296 -202 293 -200 c 0
 289 -198 286 -193 286 -188 c 0
 286 -187 328 -16 331 -8 c 0
 331 -6 330 -6 328 -6 c 0
 313 -6 274 0 252 5 c 0
 176 25 119 63 119 146 c 0xf7
EndSplineSet
EndChar

StartChar: omega
Encoding: 969 969 91
Width: 718
GlyphClass: 2
Flags: MW
HStem: -8 125<160.5 183.5> 433 20G<594 642>
VStem: 24 67<177.5 178 178 191.5> 281 134<145 264.5 173 264.5> 610 81<248.5 383>
LayerCount: 2
Fore
SplineSet
364 303 m 0
 392 303 415 279 415 250 c 0
 415 228 400 189 385 157 c 0
 381 150 378 144 378 144 c 2
 378 143 390 135 398 131 c 0
 417 122 436 117 462 117 c 0
 483 117 498 121 520 131 c 0
 537 140 548 148 564 163 c 0
 579 179 588 191 596 209 c 0
 605 227 610 242 610 255 c 0
 610 258 610 262 609 265 c 0
 605 284 589 302 561 320 c 0
 542 331 532 347 532 367 c 0
 532 410 570 453 618 453 c 0
 666 453 691 409 691 357 c 0
 691 300 663 204 649 171 c 0
 612 85 554 22 490 1 c 0
 469 -6 460 -7 438 -7 c 0
 381 -7 342 15 317 49 c 2
 311 57 l 1
 305 51 287 35 274 27 c 0
 239 4 202 -8 165 -8 c 0
 90 -8 45 40 30 102 c 0
 24 126 24 130 24 163 c 2
 24 178 l 2
 24 205 27 220 37 255 c 0
 53 316 82 375 118 424 c 0
 129 437 135 443 144 447 c 0
 150 450 151 451 161 451 c 0
 181 451 194 439 194 419 c 0
 194 404 188 396 179 387 c 0
 137 332 113 292 99 250 c 0
 92 229 91 222 91 206 c 0
 91 149 132 117 189 117 c 0
 216 117 246 125 273 141 c 2
 281 145 l 1
 281 173 l 2
 283 209 286 232 294 253 c 0
 308 284 337 303 364 303 c 0
EndSplineSet
EndChar

StartChar: theta1
Encoding: 977 977 92
Width: 692
GlyphClass: 2
Flags: MW
HStem: -8 51<300 316 300 327> 315 55<619.5 643> 401 51<143 154> 651 50<454.5 483.5>
VStem: 114 123<94.5 114 93.5 126> 166 122<339 381> 294 62<526.5 540> 519 115<464.5 590>
LayerCount: 2
Fore
SplineSet
620 370 m 0xfb
 636 370 656 364 656 352 c 0
 656 348 655 343 653 335 c 0
 648 320 648 315 638 315 c 0
 634 315 628 316 619 317 c 0
 604 319 606 321 603 308 c 0
 576 211 519 111 457 57 c 0
 405 13 361 -8 293 -8 c 0
 226 -8 175 4 144 32 c 0
 123 53 114 73 114 116 c 0xfb
 114 136 114 141 116 153 c 0
 117 163 162 342 164 351 c 0
 165 357 166 365 166 372 c 0
 166 390 161 401 147 401 c 0
 112 401 100 346 90 310 c 0
 83 283 84 282 60 282 c 2
 55 282 l 2
 36 282 34 282 31 284 c 0
 27 286 24 291 24 296 c 0
 24 297 25 303 27 309 c 0
 40 356 60 395 84 420 c 0
 107 443 128 452 158 452 c 0
 225 452 273 420 286 376 c 0
 288 370 288 366 288 354 c 2
 288 339 l 1xf7
 265 245 l 2
 252 193 240 145 239 138 c 0
 237 127 237 121 237 107 c 0
 237 80 239 70 252 59 c 0
 262 49 277 44 300 43 c 0
 332 43 350 56 368 74 c 0
 404 111 427 158 455 254 c 0
 461 277 479 344 479 347 c 2
 460 354 l 2
 411 370 377 388 348 412 c 0
 314 440 294 472 294 528 c 0
 294 552 299 573 306 592 c 0
 322 633 363 672 411 691 c 0
 426 696 445 701 464 701 c 0
 519 701 548 688 579 659 c 0
 614 622 634 564 634 491 c 0
 634 438 619 370 620 370 c 0xfb
519 566 m 0
 519 614 503 651 464 651 c 0
 426 651 398 627 379 603 c 0
 364 583 356 556 356 529 c 0
 356 524 356 518 357 513 c 0
 363 474 390 444 438 420 c 0
 457 411 486 400 491 400 c 0
 493 400 502 441 507 463 c 0
 515 506 519 540 519 566 c 0
EndSplineSet
EndChar

StartChar: phi1
Encoding: 981 981 93
Width: 712
GlyphClass: 2
Flags: MW
HStem: -7 51<274 295 274 295> 399 52<378.5 393> 674 20G<476.5 495.5>
VStem: 51 117<176 181 132.5 190 132.5 196.5> 575 118<288 299 262.5 311.5>
LayerCount: 2
Fore
SplineSet
462 692 m 0
 465 694 467 694 486 694 c 0
 505 694 506 694 510 692 c 0
 514 690 517 685 517 680 c 0
 517 679 504 627 489 564 c 2
 460 451 l 1
 469 451 l 1
 534 446 585 429 625 401 c 0
 665 373 693 332 693 266 c 0
 693 259 693 251 692 246 c 0
 685 185 651 125 597 80 c 0
 535 28 450 -2 350 -7 c 1
 346 -7 l 1
 322 -100 l 2
 308 -158 302 -195 293 -200 c 0
 289 -202 288 -202 269 -202 c 0
 250 -202 248 -202 245 -200 c 0
 241 -198 238 -193 238 -188 c 0
 238 -187 248 -145 260 -96 c 2
 283 -7 l 1
 274 -7 l 1
 161 2 75 45 53 143 c 0
 51 152 51 156 51 176 c 2
 51 190 l 2
 51 203 52 209 56 225 c 0
 90 361 229 443 393 451 c 1
 397 452 l 1
 427 568 l 2
 445 639 453 687 462 692 c 0
449 400 m 2
 448 400 359 50 359 47 c 0
 359 45 359 45 366 45 c 0
 428 51 484 80 516 119 c 0
 542 150 562 199 572 255 c 0
 574 265 575 281 575 295 c 0
 575 328 567 345 550 362 c 0
 531 381 501 394 462 398 c 0
 455 399 449 400 449 400 c 2
384 398 m 2
 384 399 383 399 381 399 c 0
 376 399 366 397 353 395 c 0
 294 383 243 354 214 308 c 0
 190 271 168 213 168 149 c 0
 168 116 176 99 193 82 c 0
 212 63 254 44 294 44 c 2
 295 44 l 2
 296 45 384 398 384 398 c 2
EndSplineSet
EndChar

StartChar: omega1
Encoding: 982 982 94
Width: 975
GlyphClass: 2
Flags: MW
HStem: -7 110<267 278.5> 333 110<199 199>
VStem: 147 67<146.5 167.5> 494 60 808 64<270.5 333 270.5 333>
LayerCount: 2
Fore
SplineSet
870 333 m 1
 872 323 872 316 872 295 c 2
 872 279 l 2
 872 262 871 253 865 233 c 0
 839 125 762 30 676 2 c 0
 656 -5 637 -8 618 -8 c 0
 568 -8 535 13 512 45 c 0
 498 66 492 84 484 119 c 0
 484 121 483 120 476 111 c 0
 431 53 375 13 317 -1 c 0
 298 -6 289 -7 268 -7 c 0
 229 -7 214 0 191 18 c 0
 164 42 147 81 147 132 c 0
 147 203 181 276 215 325 c 2
 220 333 l 1
 199 333 l 2
 141 333 114 327 88 301 c 2
 77 290 l 1
 55 289 l 2
 36 289 33 289 30 290 c 0
 26 293 23 298 23 303 c 0
 23 308 24 309 33 322 c 0
 88 396 144 437 199 443 c 0
 200 444 364 444 562 444 c 0
 876 444 922 444 928 442 c 0
 949 437 961 422 961 400 c 0
 961 361 930 333 886 333 c 2
 870 333 l 1
550 218 m 0
 550 152 576 103 639 103 c 0
 668 103 701 115 732 136 c 0
 751 149 774 175 786 195 c 0
 801 222 811 253 811 295 c 0
 811 308 810 322 808 330 c 2
 808 333 l 1
 289 333 l 1
 287 331 l 1
 251 282 230 241 217 195 c 0
 214 183 214 182 214 169 c 0
 214 124 246 103 288 103 c 0
 316 103 336 109 359 120 c 0
 422 148 475 210 494 278 c 0
 498 294 501 295 529 295 c 0
 547 295 548 294 551 292 c 0
 558 287 558 284 554 265 c 0
 550 247 550 238 550 218 c 0
EndSplineSet
EndChar

StartChar: uni03F1
Encoding: 1009 1009 95
Width: 612
GlyphClass: 2
Flags: MW
HStem: -194 121 -175 111<206 293> -8 51<288 328.5 288 344.5> 400 51<386 403 403 411.5 386 431.5>
VStem: 75 69<-78 -6.5> 395 71<-180 -110.5> 474 129<326 331.5 242.5 353.5>
LayerCount: 2
Fore
SplineSet
152 53 m 1x7e
 152 41 144 3 144 -16 c 0
 144 -36 146 -43 160 -50 c 0
 172 -56 187 -59 213 -62 c 0
 219 -63 255 -64 293 -64 c 0x7e
 378 -65 398 -66 424 -73 c 0
 452 -81 466 -94 466 -127 c 0
 466 -139 463 -154 459 -172 c 0
 454 -194 454 -194 426 -194 c 0xbe
 407 -194 406 -194 402 -192 c 0
 397 -189 395 -184 395 -176 c 0
 398 -164 388 -168 371 -168 c 0
 352 -168 338 -169 316 -172 c 0
 295 -174 269 -175 245 -175 c 0
 167 -175 102 -166 81 -114 c 0
 76 -102 75 -90 75 -66 c 0
 75 -26 82 24 99 101 c 0
 111 157 131 236 137 254 c 0
 161 319 202 374 258 408 c 0
 293 431 336 445 386 451 c 1
 403 451 l 2
 420 451 443 451 452 450 c 0
 541 436 603 381 603 282 c 0
 603 203 568 129 516 77 c 0
 461 22 385 -8 304 -8 c 0
 243 -8 195 11 164 42 c 0
 158 48 153 53 152 53 c 1x7e
236 116 m 0
 236 69 265 43 311 43 c 0
 346 43 383 62 407 94 c 0
 435 130 464 247 473 303 c 0
 474 310 474 321 474 331 c 0
 474 376 454 400 409 400 c 0
 358 400 322 374 299 341 c 0
 286 321 275 294 264 257 c 0
 254 216 236 159 236 116 c 0
EndSplineSet
EndChar

StartChar: uni03F5
Encoding: 1013 1013 96
Width: 483
GlyphClass: 2
Flags: MW
HStem: -7 50<257.5 294.5 257.5 302.5> 205 62<266 317.5> 382 62<376 376>
VStem: 44 130<105 181 105 213>
LayerCount: 2
Fore
SplineSet
174 140 m 0
 174 70 223 43 292 43 c 0
 297 43 303 44 307 44 c 0
 330 48 356 59 394 81 c 0
 410 91 414 92 421 88 c 0
 425 85 426 84 432 64 c 0
 437 47 438 44 434 39 c 0
 430 33 394 15 370 7 c 0
 340 -4 324 -7 281 -7 c 0
 161 -7 72 38 49 131 c 0
 45 147 44 153 44 167 c 2
 44 181 l 2
 44 245 62 287 94 329 c 0
 144 394 229 436 327 443 c 0
 333 443 358 444 383 444 c 0
 433 444 434 444 442 438 c 0
 448 432 450 426 450 416 c 0
 447 397 439 389 424 383 c 1
 376 382 l 2
 332 381 326 381 315 379 c 0
 262 370 227 342 208 294 c 0
 204 285 199 269 199 268 c 0
 199 267 241 267 291 267 c 0
 356 267 385 267 387 266 c 0
 398 262 406 256 406 241 c 0
 406 222 393 210 380 206 c 0
 375 205 356 205 279 205 c 0
 189 205 183 205 183 203 c 0
 178 189 174 162 174 140 c 0
EndSplineSet
EndChar

StartChar: uniEFFD
Encoding: 61437 61437 97
Width: 900
GlyphClass: 2
Flags: MW
HStem: 0 100<0 100 0 100 800 900>
VStem: 0 100<0 100 0 100> 800 100<0 100 0 100>
LayerCount: 2
Fore
SplineSet
0 0 m 1
 0 100 l 1
 100 100 l 1
 100 0 l 1
 0 0 l 1
800 0 m 1
 800 100 l 1
 900 100 l 1
 900 0 l 1
 800 0 l 1
EndSplineSet
EndChar

StartChar: uniEFFE
Encoding: 61438 61438 98
Width: 500
GlyphClass: 2
Flags: MW
HStem: 0 100<0 100 0 100 400 500>
VStem: 0 100<0 100 0 100>
LayerCount: 2
Fore
SplineSet
0 0 m 1
 0 100 l 1
 100 100 l 1
 100 0 l 1
 0 0 l 1
400 0 m 1
 400 100 l 1
 500 100 l 1
 500 0 l 1
 400 0 l 1
EndSplineSet
EndChar

StartChar: uniEFFF
Encoding: 61439 61439 99
Width: 100
GlyphClass: 2
Flags: MW
HStem: 0 100<0 100 0 100>
VStem: 0 100<0 100 0 100>
LayerCount: 2
Fore
SplineSet
0 0 m 1
 0 100 l 1
 100 100 l 1
 100 0 l 1
 0 0 l 1
EndSplineSet
EndChar
